<svg id="eiMwnoqOGRU1" xmlns="http://www.w3.org/2000/svg" xmlns:xlink="http://www.w3.org/1999/xlink" viewBox="0 0 1537 199" shape-rendering="geometricPrecision" text-rendering="geometricPrecision"><path d="M1531.46,73L42.4561,73v42h1489.0039v-42Z" fill="#f2f2f2" fill-opacity="0.501961"/><path d="M1531.46,157h-1489.0039v41h1489.0039v-41Z" fill="#f2f2f2" fill-opacity="0.501961"/><path d="M42.9561,23v175" fill="none" stroke="#bdbdbd"/><path d="M104.957,23v175" fill="none" stroke="#bdbdbd"/><path d="M46.8936,69.6504v3.9365" fill="none" stroke="#bdbdbd"/><path d="M79.3706,69.6504v3.9365" fill="none" stroke="#bdbdbd"/><path d="M63.1313,69.6504v3.9365" fill="none" stroke="#bdbdbd"/><path d="M95.6084,69.6504v3.9365" fill="none" stroke="#bdbdbd"/><path d="M52.3062,69.6504v3.9365" fill="none" stroke="#bdbdbd"/><path d="M84.7827,69.6504v3.9365" fill="none" stroke="#bdbdbd"/><path d="M68.5449,69.6504v3.9365" fill="none" stroke="#bdbdbd"/><path d="M101.021,69.6504v3.9365" fill="none" stroke="#bdbdbd"/><path d="M57.7188,64.7295v8.8572" fill="none" stroke="#bdbdbd"/><path d="M90.1958,64.7295v8.8572" fill="none" stroke="#bdbdbd"/><path d="M73.957,52.9199v20.6669" fill="none" stroke="#bdbdbd"/><path d="M46.8936,111.984v3.936" fill="none" stroke="#bdbdbd"/><path d="M79.3706,111.984v3.936" fill="none" stroke="#bdbdbd"/><path d="M63.1313,111.984v3.936" fill="none" stroke="#bdbdbd"/><path d="M95.6084,111.984v3.936" fill="none" stroke="#bdbdbd"/><path d="M52.3062,111.984v3.936" fill="none" stroke="#bdbdbd"/><path d="M84.7827,111.984v3.936" fill="none" stroke="#bdbdbd"/><path d="M68.5449,111.984v3.936" fill="none" stroke="#bdbdbd"/><path d="M101.021,111.984v3.936" fill="none" stroke="#bdbdbd"/><path d="M57.7192,107.063v8.857" fill="none" stroke="#bdbdbd"/><path d="M90.1958,107.063v8.857" fill="none" stroke="#bdbdbd"/><path d="M73.957,95.2529v20.6671" fill="none" stroke="#bdbdbd"/><path d="M46.8936,153.318v3.937" fill="none" stroke="#bdbdbd"/><path d="M79.3706,153.318v3.937" fill="none" stroke="#bdbdbd"/><path d="M63.1313,153.318v3.937" fill="none" stroke="#bdbdbd"/><path d="M95.6084,153.318v3.937" fill="none" stroke="#bdbdbd"/><path d="M52.3062,153.318v3.937" fill="none" stroke="#bdbdbd"/><path d="M84.7827,153.318v3.937" fill="none" stroke="#bdbdbd"/><path d="M68.5449,153.318v3.937" fill="none" stroke="#bdbdbd"/><path d="M101.021,153.318v3.937" fill="none" stroke="#bdbdbd"/><path d="M57.7188,148.397v8.858" fill="none" stroke="#bdbdbd"/><path d="M90.1958,148.397v8.858" fill="none" stroke="#bdbdbd"/><path d="M73.957,136.588v20.667" fill="none" stroke="#bdbdbd"/><path d="M46.8936,194.652v3.937" fill="none" stroke="#bdbdbd"/><path d="M79.3706,194.652v3.937" fill="none" stroke="#bdbdbd"/><path d="M63.1313,194.652v3.937" fill="none" stroke="#bdbdbd"/><path d="M95.6084,194.652v3.937" fill="none" stroke="#bdbdbd"/><path d="M52.3062,194.652v3.937" fill="none" stroke="#bdbdbd"/><path d="M84.7827,194.652v3.937" fill="none" stroke="#bdbdbd"/><path d="M68.5449,194.652v3.937" fill="none" stroke="#bdbdbd"/><path d="M101.021,194.652v3.937" fill="none" stroke="#bdbdbd"/><path d="M57.7192,189.731v8.858" fill="none" stroke="#bdbdbd"/><path d="M90.1958,189.731v8.858" fill="none" stroke="#bdbdbd"/><path d="M73.957,177.922v20.667" fill="none" stroke="#bdbdbd"/><path d="M108.893,69.6504v3.9365" fill="none" stroke="#bdbdbd"/><path d="M141.37,69.6504v3.9365" fill="none" stroke="#bdbdbd"/><path d="M125.13,69.6504v3.9365" fill="none" stroke="#bdbdbd"/><path d="M157.607,69.6504v3.9365" fill="none" stroke="#bdbdbd"/><path d="M114.305,69.6504v3.9365" fill="none" stroke="#bdbdbd"/><path d="M146.782,69.6504v3.9365" fill="none" stroke="#bdbdbd"/><path d="M130.544,69.6504v3.9365" fill="none" stroke="#bdbdbd"/><path d="M163.02,69.6504v3.9365" fill="none" stroke="#bdbdbd"/><path d="M119.718,64.7295v8.8572" fill="none" stroke="#bdbdbd"/><path d="M152.195,64.7295v8.8572" fill="none" stroke="#bdbdbd"/><path d="M135.956,52.9199v20.6669" fill="none" stroke="#bdbdbd"/><path d="M108.893,111.984v3.936" fill="none" stroke="#bdbdbd"/><path d="M141.37,111.984v3.936" fill="none" stroke="#bdbdbd"/><path d="M125.13,111.984v3.936" fill="none" stroke="#bdbdbd"/><path d="M157.607,111.984v3.936" fill="none" stroke="#bdbdbd"/><path d="M114.305,111.984v3.936" fill="none" stroke="#bdbdbd"/><path d="M146.782,111.984v3.936" fill="none" stroke="#bdbdbd"/><path d="M130.544,111.984v3.936" fill="none" stroke="#bdbdbd"/><path d="M163.02,111.984v3.936" fill="none" stroke="#bdbdbd"/><path d="M119.718,107.063v8.857" fill="none" stroke="#bdbdbd"/><path d="M152.195,107.063v8.857" fill="none" stroke="#bdbdbd"/><path d="M135.956,95.2529v20.6671" fill="none" stroke="#bdbdbd"/><path d="M108.893,153.318v3.937" fill="none" stroke="#bdbdbd"/><path d="M141.37,153.318v3.937" fill="none" stroke="#bdbdbd"/><path d="M125.13,153.318v3.937" fill="none" stroke="#bdbdbd"/><path d="M157.607,153.318v3.937" fill="none" stroke="#bdbdbd"/><path d="M114.305,153.318v3.937" fill="none" stroke="#bdbdbd"/><path d="M146.782,153.318v3.937" fill="none" stroke="#bdbdbd"/><path d="M130.544,153.318v3.937" fill="none" stroke="#bdbdbd"/><path d="M163.02,153.318v3.937" fill="none" stroke="#bdbdbd"/><path d="M119.718,148.397v8.858" fill="none" stroke="#bdbdbd"/><path d="M152.195,148.397v8.858" fill="none" stroke="#bdbdbd"/><path d="M135.956,136.588v20.667" fill="none" stroke="#bdbdbd"/><path d="M108.893,194.652v3.936" fill="none" stroke="#bdbdbd"/><path d="M141.37,194.652v3.936" fill="none" stroke="#bdbdbd"/><path d="M125.13,194.652v3.936" fill="none" stroke="#bdbdbd"/><path d="M157.607,194.652v3.936" fill="none" stroke="#bdbdbd"/><path d="M114.305,194.652v3.936" fill="none" stroke="#bdbdbd"/><path d="M146.782,194.652v3.936" fill="none" stroke="#bdbdbd"/><path d="M130.544,194.652v3.936" fill="none" stroke="#bdbdbd"/><path d="M163.02,194.652v3.936" fill="none" stroke="#bdbdbd"/><path d="M119.718,189.731v8.857" fill="none" stroke="#bdbdbd"/><path d="M152.195,189.731v8.857" fill="none" stroke="#bdbdbd"/><path d="M135.956,177.921v20.667" fill="none" stroke="#bdbdbd"/><path d="M170.894,69.6504v3.9365" fill="none" stroke="#bdbdbd"/><path d="M203.371,69.6504v3.9365" fill="none" stroke="#bdbdbd"/><path d="M187.131,69.6504v3.9365" fill="none" stroke="#bdbdbd"/><path d="M219.608,69.6504v3.9365" fill="none" stroke="#bdbdbd"/><path d="M176.306,69.6504v3.9365" fill="none" stroke="#bdbdbd"/><path d="M208.783,69.6504v3.9365" fill="none" stroke="#bdbdbd"/><path d="M192.545,69.6504v3.9365" fill="none" stroke="#bdbdbd"/><path d="M225.021,69.6504v3.9365" fill="none" stroke="#bdbdbd"/><path d="M181.72,64.7295v8.8572" fill="none" stroke="#bdbdbd"/><path d="M214.196,64.7295v8.8572" fill="none" stroke="#bdbdbd"/><path d="M197.957,52.9199v20.6669" fill="none" stroke="#bdbdbd"/><path d="M170.894,111.984v3.936" fill="none" stroke="#bdbdbd"/><path d="M203.371,111.984v3.936" fill="none" stroke="#bdbdbd"/><path d="M187.131,111.984v3.936" fill="none" stroke="#bdbdbd"/><path d="M219.608,111.984v3.936" fill="none" stroke="#bdbdbd"/><path d="M176.306,111.984v3.936" fill="none" stroke="#bdbdbd"/><path d="M208.783,111.984v3.936" fill="none" stroke="#bdbdbd"/><path d="M192.545,111.984v3.936" fill="none" stroke="#bdbdbd"/><path d="M225.021,111.984v3.936" fill="none" stroke="#bdbdbd"/><path d="M181.72,107.063v8.858" fill="none" stroke="#bdbdbd"/><path d="M214.196,107.063v8.858" fill="none" stroke="#bdbdbd"/><path d="M197.957,95.2539v20.6671" fill="none" stroke="#bdbdbd"/><path d="M170.894,153.317v3.937" fill="none" stroke="#bdbdbd"/><path d="M203.371,153.317v3.937" fill="none" stroke="#bdbdbd"/><path d="M187.131,153.317v3.937" fill="none" stroke="#bdbdbd"/><path d="M219.608,153.317v3.937" fill="none" stroke="#bdbdbd"/><path d="M176.306,153.317v3.937" fill="none" stroke="#bdbdbd"/><path d="M208.783,153.317v3.937" fill="none" stroke="#bdbdbd"/><path d="M192.545,153.317v3.937" fill="none" stroke="#bdbdbd"/><path d="M225.021,153.317v3.937" fill="none" stroke="#bdbdbd"/><path d="M181.719,148.397v8.857" fill="none" stroke="#bdbdbd"/><path d="M214.196,148.397v8.857" fill="none" stroke="#bdbdbd"/><path d="M197.957,136.587v20.667" fill="none" stroke="#bdbdbd"/><path d="M170.894,194.652v3.936" fill="none" stroke="#bdbdbd"/><path d="M203.371,194.652v3.936" fill="none" stroke="#bdbdbd"/><path d="M187.131,194.652v3.936" fill="none" stroke="#bdbdbd"/><path d="M219.608,194.652v3.936" fill="none" stroke="#bdbdbd"/><path d="M176.306,194.652v3.936" fill="none" stroke="#bdbdbd"/><path d="M208.783,194.652v3.936" fill="none" stroke="#bdbdbd"/><path d="M192.545,194.652v3.936" fill="none" stroke="#bdbdbd"/><path d="M225.021,194.652v3.936" fill="none" stroke="#bdbdbd"/><path d="M181.72,189.731v8.858" fill="none" stroke="#bdbdbd"/><path d="M214.196,189.731v8.858" fill="none" stroke="#bdbdbd"/><path d="M197.957,177.921v20.667" fill="none" stroke="#bdbdbd"/><path d="M232.894,69.6504v3.9365" fill="none" stroke="#bdbdbd"/><path d="M265.371,69.6504v3.9365" fill="none" stroke="#bdbdbd"/><path d="M249.132,69.6504v3.9365" fill="none" stroke="#bdbdbd"/><path d="M281.609,69.6504v3.9365" fill="none" stroke="#bdbdbd"/><path d="M238.307,69.6504v3.9365" fill="none" stroke="#bdbdbd"/><path d="M270.784,69.6504v3.9365" fill="none" stroke="#bdbdbd"/><path d="M254.545,69.6504v3.9365" fill="none" stroke="#bdbdbd"/><path d="M287.021,69.6504v3.9365" fill="none" stroke="#bdbdbd"/><path d="M243.72,64.7295v8.8572" fill="none" stroke="#bdbdbd"/><path d="M276.196,64.7295v8.8572" fill="none" stroke="#bdbdbd"/><path d="M259.957,52.9199v20.6669" fill="none" stroke="#bdbdbd"/><path d="M232.894,111.984v3.937" fill="none" stroke="#bdbdbd"/><path d="M265.371,111.984v3.937" fill="none" stroke="#bdbdbd"/><path d="M249.132,111.984v3.937" fill="none" stroke="#bdbdbd"/><path d="M281.609,111.984v3.937" fill="none" stroke="#bdbdbd"/><path d="M238.307,111.984v3.937" fill="none" stroke="#bdbdbd"/><path d="M270.784,111.984v3.937" fill="none" stroke="#bdbdbd"/><path d="M254.545,111.984v3.937" fill="none" stroke="#bdbdbd"/><path d="M287.021,111.984v3.937" fill="none" stroke="#bdbdbd"/><path d="M243.72,107.063v8.858" fill="none" stroke="#bdbdbd"/><path d="M276.196,107.063v8.858" fill="none" stroke="#bdbdbd"/><path d="M259.957,95.2539v20.6671" fill="none" stroke="#bdbdbd"/><path d="M232.894,153.317v3.937" fill="none" stroke="#bdbdbd"/><path d="M265.372,153.317v3.937" fill="none" stroke="#bdbdbd"/><path d="M249.133,153.317v3.937" fill="none" stroke="#bdbdbd"/><path d="M281.609,153.317v3.937" fill="none" stroke="#bdbdbd"/><path d="M238.307,153.317v3.937" fill="none" stroke="#bdbdbd"/><path d="M270.784,153.317v3.937" fill="none" stroke="#bdbdbd"/><path d="M254.546,153.317v3.937" fill="none" stroke="#bdbdbd"/><path d="M287.022,153.317v3.937" fill="none" stroke="#bdbdbd"/><path d="M243.72,148.396v8.858" fill="none" stroke="#bdbdbd"/><path d="M276.197,148.396v8.858" fill="none" stroke="#bdbdbd"/><path d="M259.958,136.587v20.667" fill="none" stroke="#bdbdbd"/><path d="M232.894,194.651v3.937" fill="none" stroke="#bdbdbd"/><path d="M265.372,194.651v3.937" fill="none" stroke="#bdbdbd"/><path d="M249.133,194.651v3.937" fill="none" stroke="#bdbdbd"/><path d="M281.609,194.651v3.937" fill="none" stroke="#bdbdbd"/><path d="M238.307,194.651v3.937" fill="none" stroke="#bdbdbd"/><path d="M270.784,194.651v3.937" fill="none" stroke="#bdbdbd"/><path d="M254.546,194.651v3.937" fill="none" stroke="#bdbdbd"/><path d="M287.022,194.651v3.937" fill="none" stroke="#bdbdbd"/><path d="M243.72,189.73v8.858" fill="none" stroke="#bdbdbd"/><path d="M276.197,189.73v8.858" fill="none" stroke="#bdbdbd"/><path d="M259.958,177.921v20.667" fill="none" stroke="#bdbdbd"/><path d="M294.896,69.6504v3.9365" fill="none" stroke="#bdbdbd"/><path d="M327.373,69.6504v3.9365" fill="none" stroke="#bdbdbd"/><path d="M311.134,69.6504v3.9365" fill="none" stroke="#bdbdbd"/><path d="M343.611,69.6504v3.9365" fill="none" stroke="#bdbdbd"/><path d="M300.309,69.6504v3.9365" fill="none" stroke="#bdbdbd"/><path d="M332.785,69.6504v3.9365" fill="none" stroke="#bdbdbd"/><path d="M316.547,69.6504v3.9365" fill="none" stroke="#bdbdbd"/><path d="M349.023,69.6504v3.9365" fill="none" stroke="#bdbdbd"/><path d="M305.722,64.7295v8.8572" fill="none" stroke="#bdbdbd"/><path d="M338.198,64.7295v8.8572" fill="none" stroke="#bdbdbd"/><path d="M321.959,52.9199v20.6669" fill="none" stroke="#bdbdbd"/><path d="M294.896,111.984v3.936" fill="none" stroke="#bdbdbd"/><path d="M327.373,111.984v3.936" fill="none" stroke="#bdbdbd"/><path d="M311.134,111.984v3.936" fill="none" stroke="#bdbdbd"/><path d="M343.611,111.984v3.936" fill="none" stroke="#bdbdbd"/><path d="M300.309,111.984v3.936" fill="none" stroke="#bdbdbd"/><path d="M332.785,111.984v3.936" fill="none" stroke="#bdbdbd"/><path d="M316.547,111.984v3.936" fill="none" stroke="#bdbdbd"/><path d="M349.023,111.984v3.936" fill="none" stroke="#bdbdbd"/><path d="M305.722,107.063v8.857" fill="none" stroke="#bdbdbd"/><path d="M338.198,107.063v8.857" fill="none" stroke="#bdbdbd"/><path d="M321.959,95.2529v20.6671" fill="none" stroke="#bdbdbd"/><path d="M294.895,153.318v3.937" fill="none" stroke="#bdbdbd"/><path d="M327.372,153.318v3.937" fill="none" stroke="#bdbdbd"/><path d="M311.133,153.318v3.937" fill="none" stroke="#bdbdbd"/><path d="M343.61,153.318v3.937" fill="none" stroke="#bdbdbd"/><path d="M300.308,153.318v3.937" fill="none" stroke="#bdbdbd"/><path d="M332.784,153.318v3.937" fill="none" stroke="#bdbdbd"/><path d="M316.546,153.318v3.937" fill="none" stroke="#bdbdbd"/><path d="M349.022,153.318v3.937" fill="none" stroke="#bdbdbd"/><path d="M305.721,148.397v8.858" fill="none" stroke="#bdbdbd"/><path d="M338.197,148.397v8.858" fill="none" stroke="#bdbdbd"/><path d="M321.958,136.588v20.667" fill="none" stroke="#bdbdbd"/><path d="M294.895,194.651v3.937" fill="none" stroke="#bdbdbd"/><path d="M327.372,194.651v3.937" fill="none" stroke="#bdbdbd"/><path d="M311.133,194.651v3.937" fill="none" stroke="#bdbdbd"/><path d="M343.61,194.651v3.937" fill="none" stroke="#bdbdbd"/><path d="M300.308,194.651v3.937" fill="none" stroke="#bdbdbd"/><path d="M332.784,194.651v3.937" fill="none" stroke="#bdbdbd"/><path d="M316.546,194.651v3.937" fill="none" stroke="#bdbdbd"/><path d="M349.022,194.651v3.937" fill="none" stroke="#bdbdbd"/><path d="M305.721,189.73v8.858" fill="none" stroke="#bdbdbd"/><path d="M338.197,189.73v8.858" fill="none" stroke="#bdbdbd"/><path d="M321.958,177.921v20.667" fill="none" stroke="#bdbdbd"/><path d="M356.896,69.6504v3.9365" fill="none" stroke="#bdbdbd"/><path d="M389.372,69.6504v3.9365" fill="none" stroke="#bdbdbd"/><path d="M373.133,69.6504v3.9365" fill="none" stroke="#bdbdbd"/><path d="M405.611,69.6504v3.9365" fill="none" stroke="#bdbdbd"/><path d="M362.309,69.6504v3.9365" fill="none" stroke="#bdbdbd"/><path d="M394.785,69.6504v3.9365" fill="none" stroke="#bdbdbd"/><path d="M378.547,69.6504v3.9365" fill="none" stroke="#bdbdbd"/><path d="M411.023,69.6504v3.9365" fill="none" stroke="#bdbdbd"/><path d="M367.722,64.7295v8.8572" fill="none" stroke="#bdbdbd"/><path d="M400.197,64.7295v8.8572" fill="none" stroke="#bdbdbd"/><path d="M383.959,52.9199v20.6669" fill="none" stroke="#bdbdbd"/><path d="M356.896,111.984v3.936" fill="none" stroke="#bdbdbd"/><path d="M389.372,111.984v3.936" fill="none" stroke="#bdbdbd"/><path d="M373.133,111.984v3.936" fill="none" stroke="#bdbdbd"/><path d="M405.611,111.984v3.936" fill="none" stroke="#bdbdbd"/><path d="M362.309,111.984v3.936" fill="none" stroke="#bdbdbd"/><path d="M394.785,111.984v3.936" fill="none" stroke="#bdbdbd"/><path d="M378.547,111.984v3.936" fill="none" stroke="#bdbdbd"/><path d="M411.023,111.984v3.936" fill="none" stroke="#bdbdbd"/><path d="M367.722,107.063v8.858" fill="none" stroke="#bdbdbd"/><path d="M400.197,107.063v8.858" fill="none" stroke="#bdbdbd"/><path d="M383.959,95.2539v20.6671" fill="none" stroke="#bdbdbd"/><path d="M356.895,153.317v3.937" fill="none" stroke="#bdbdbd"/><path d="M389.372,153.317v3.937" fill="none" stroke="#bdbdbd"/><path d="M373.133,153.317v3.937" fill="none" stroke="#bdbdbd"/><path d="M405.61,153.317v3.937" fill="none" stroke="#bdbdbd"/><path d="M362.308,153.317v3.937" fill="none" stroke="#bdbdbd"/><path d="M394.785,153.317v3.937" fill="none" stroke="#bdbdbd"/><path d="M378.547,153.317v3.937" fill="none" stroke="#bdbdbd"/><path d="M411.023,153.317v3.937" fill="none" stroke="#bdbdbd"/><path d="M367.721,148.397v8.857" fill="none" stroke="#bdbdbd"/><path d="M400.197,148.397v8.857" fill="none" stroke="#bdbdbd"/><path d="M383.959,136.587v20.667" fill="none" stroke="#bdbdbd"/><path d="M356.896,194.651v3.937" fill="none" stroke="#bdbdbd"/><path d="M389.372,194.651v3.937" fill="none" stroke="#bdbdbd"/><path d="M373.133,194.651v3.937" fill="none" stroke="#bdbdbd"/><path d="M405.611,194.651v3.937" fill="none" stroke="#bdbdbd"/><path d="M362.309,194.651v3.937" fill="none" stroke="#bdbdbd"/><path d="M394.785,194.651v3.937" fill="none" stroke="#bdbdbd"/><path d="M378.547,194.651v3.937" fill="none" stroke="#bdbdbd"/><path d="M411.023,194.651v3.937" fill="none" stroke="#bdbdbd"/><path d="M367.722,189.731v8.857" fill="none" stroke="#bdbdbd"/><path d="M400.197,189.731v8.857" fill="none" stroke="#bdbdbd"/><path d="M383.959,177.921v20.667" fill="none" stroke="#bdbdbd"/><path d="M418.897,69.6504v3.9365" fill="none" stroke="#bdbdbd"/><path d="M451.374,69.6504v3.9365" fill="none" stroke="#bdbdbd"/><path d="M435.135,69.6504v3.9365" fill="none" stroke="#bdbdbd"/><path d="M467.612,69.6504v3.9365" fill="none" stroke="#bdbdbd"/><path d="M424.31,69.6504v3.9365" fill="none" stroke="#bdbdbd"/><path d="M456.786,69.6504v3.9365" fill="none" stroke="#bdbdbd"/><path d="M440.548,69.6504v3.9365" fill="none" stroke="#bdbdbd"/><path d="M473.025,69.6504v3.9365" fill="none" stroke="#bdbdbd"/><path d="M429.723,64.7295v8.8572" fill="none" stroke="#bdbdbd"/><path d="M462.199,64.7295v8.8572" fill="none" stroke="#bdbdbd"/><path d="M445.96,52.9199v20.6669" fill="none" stroke="#bdbdbd"/><path d="M418.897,111.984v3.936" fill="none" stroke="#bdbdbd"/><path d="M451.374,111.984v3.936" fill="none" stroke="#bdbdbd"/><path d="M435.135,111.984v3.936" fill="none" stroke="#bdbdbd"/><path d="M467.612,111.984v3.936" fill="none" stroke="#bdbdbd"/><path d="M424.31,111.984v3.936" fill="none" stroke="#bdbdbd"/><path d="M456.786,111.984v3.936" fill="none" stroke="#bdbdbd"/><path d="M440.548,111.984v3.936" fill="none" stroke="#bdbdbd"/><path d="M473.025,111.984v3.936" fill="none" stroke="#bdbdbd"/><path d="M429.723,107.063v8.858" fill="none" stroke="#bdbdbd"/><path d="M462.199,107.063v8.858" fill="none" stroke="#bdbdbd"/><path d="M445.96,95.2539v20.6671" fill="none" stroke="#bdbdbd"/><path d="M418.897,153.317v3.937" fill="none" stroke="#bdbdbd"/><path d="M451.374,153.317v3.937" fill="none" stroke="#bdbdbd"/><path d="M435.135,153.317v3.937" fill="none" stroke="#bdbdbd"/><path d="M467.612,153.317v3.937" fill="none" stroke="#bdbdbd"/><path d="M424.31,153.317v3.937" fill="none" stroke="#bdbdbd"/><path d="M456.786,153.317v3.937" fill="none" stroke="#bdbdbd"/><path d="M440.548,153.317v3.937" fill="none" stroke="#bdbdbd"/><path d="M473.025,153.317v3.937" fill="none" stroke="#bdbdbd"/><path d="M429.723,148.396v8.858" fill="none" stroke="#bdbdbd"/><path d="M462.199,148.396v8.858" fill="none" stroke="#bdbdbd"/><path d="M445.96,136.587v20.667" fill="none" stroke="#bdbdbd"/><path d="M418.897,194.651v3.937" fill="none" stroke="#bdbdbd"/><path d="M451.374,194.651v3.937" fill="none" stroke="#bdbdbd"/><path d="M435.135,194.651v3.937" fill="none" stroke="#bdbdbd"/><path d="M467.612,194.651v3.937" fill="none" stroke="#bdbdbd"/><path d="M424.31,194.651v3.937" fill="none" stroke="#bdbdbd"/><path d="M456.786,194.651v3.937" fill="none" stroke="#bdbdbd"/><path d="M440.548,194.651v3.937" fill="none" stroke="#bdbdbd"/><path d="M473.025,194.651v3.937" fill="none" stroke="#bdbdbd"/><path d="M429.723,189.73v8.858" fill="none" stroke="#bdbdbd"/><path d="M462.199,189.73v8.858" fill="none" stroke="#bdbdbd"/><path d="M445.96,177.921v20.667" fill="none" stroke="#bdbdbd"/><path d="M480.897,69.6504v3.9365" fill="none" stroke="#bdbdbd"/><path d="M513.374,69.6504v3.9365" fill="none" stroke="#bdbdbd"/><path d="M497.135,69.6504v3.9365" fill="none" stroke="#bdbdbd"/><path d="M529.612,69.6504v3.9365" fill="none" stroke="#bdbdbd"/><path d="M486.31,69.6504v3.9365" fill="none" stroke="#bdbdbd"/><path d="M518.787,69.6504v3.9365" fill="none" stroke="#bdbdbd"/><path d="M502.549,69.6504v3.9365" fill="none" stroke="#bdbdbd"/><path d="M535.025,69.6504v3.9365" fill="none" stroke="#bdbdbd"/><path d="M491.723,64.7295v8.8572" fill="none" stroke="#bdbdbd"/><path d="M524.2,64.7295v8.8572" fill="none" stroke="#bdbdbd"/><path d="M507.961,52.9199v20.6669" fill="none" stroke="#bdbdbd"/><path d="M480.897,111.984v3.937" fill="none" stroke="#bdbdbd"/><path d="M513.374,111.984v3.937" fill="none" stroke="#bdbdbd"/><path d="M497.135,111.984v3.937" fill="none" stroke="#bdbdbd"/><path d="M529.612,111.984v3.937" fill="none" stroke="#bdbdbd"/><path d="M486.31,111.984v3.937" fill="none" stroke="#bdbdbd"/><path d="M518.787,111.984v3.937" fill="none" stroke="#bdbdbd"/><path d="M502.549,111.984v3.937" fill="none" stroke="#bdbdbd"/><path d="M535.025,111.984v3.937" fill="none" stroke="#bdbdbd"/><path d="M491.723,107.063v8.858" fill="none" stroke="#bdbdbd"/><path d="M524.2,107.063v8.858" fill="none" stroke="#bdbdbd"/><path d="M507.961,95.2539v20.6671" fill="none" stroke="#bdbdbd"/><path d="M480.896,153.317v3.937" fill="none" stroke="#bdbdbd"/><path d="M513.373,153.317v3.937" fill="none" stroke="#bdbdbd"/><path d="M497.134,153.317v3.937" fill="none" stroke="#bdbdbd"/><path d="M529.611,153.317v3.937" fill="none" stroke="#bdbdbd"/><path d="M486.309,153.317v3.937" fill="none" stroke="#bdbdbd"/><path d="M518.786,153.317v3.937" fill="none" stroke="#bdbdbd"/><path d="M502.548,153.317v3.937" fill="none" stroke="#bdbdbd"/><path d="M535.024,153.317v3.937" fill="none" stroke="#bdbdbd"/><path d="M491.722,148.396v8.858" fill="none" stroke="#bdbdbd"/><path d="M524.199,148.396v8.858" fill="none" stroke="#bdbdbd"/><path d="M507.96,136.587v20.667" fill="none" stroke="#bdbdbd"/><path d="M480.897,194.651v3.937" fill="none" stroke="#bdbdbd"/><path d="M513.374,194.651v3.937" fill="none" stroke="#bdbdbd"/><path d="M497.135,194.651v3.937" fill="none" stroke="#bdbdbd"/><path d="M529.612,194.651v3.937" fill="none" stroke="#bdbdbd"/><path d="M486.31,194.651v3.937" fill="none" stroke="#bdbdbd"/><path d="M518.786,194.651v3.937" fill="none" stroke="#bdbdbd"/><path d="M502.548,194.651v3.937" fill="none" stroke="#bdbdbd"/><path d="M535.024,194.651v3.937" fill="none" stroke="#bdbdbd"/><path d="M491.723,189.73v8.858" fill="none" stroke="#bdbdbd"/><path d="M524.199,189.73v8.858" fill="none" stroke="#bdbdbd"/><path d="M507.96,177.921v20.667" fill="none" stroke="#bdbdbd"/><path d="M542.898,69.6504v3.9365" fill="none" stroke="#bdbdbd"/><path d="M575.375,69.6504v3.9365" fill="none" stroke="#bdbdbd"/><path d="M559.136,69.6504v3.9365" fill="none" stroke="#bdbdbd"/><path d="M591.613,69.6504v3.9365" fill="none" stroke="#bdbdbd"/><path d="M548.31,69.6504v3.9365" fill="none" stroke="#bdbdbd"/><path d="M580.788,69.6504v3.9365" fill="none" stroke="#bdbdbd"/><path d="M564.549,69.6504v3.9365" fill="none" stroke="#bdbdbd"/><path d="M597.025,69.6504v3.9365" fill="none" stroke="#bdbdbd"/><path d="M553.723,64.7295v8.8572" fill="none" stroke="#bdbdbd"/><path d="M586.2,64.7295v8.8572" fill="none" stroke="#bdbdbd"/><path d="M569.961,52.9199v20.6669" fill="none" stroke="#bdbdbd"/><path d="M542.898,111.984v3.937" fill="none" stroke="#bdbdbd"/><path d="M575.375,111.984v3.937" fill="none" stroke="#bdbdbd"/><path d="M559.136,111.984v3.937" fill="none" stroke="#bdbdbd"/><path d="M591.613,111.984v3.937" fill="none" stroke="#bdbdbd"/><path d="M548.31,111.984v3.937" fill="none" stroke="#bdbdbd"/><path d="M580.788,111.984v3.937" fill="none" stroke="#bdbdbd"/><path d="M564.549,111.984v3.937" fill="none" stroke="#bdbdbd"/><path d="M597.025,111.984v3.937" fill="none" stroke="#bdbdbd"/><path d="M553.724,107.063v8.858" fill="none" stroke="#bdbdbd"/><path d="M586.2,107.063v8.858" fill="none" stroke="#bdbdbd"/><path d="M569.961,95.2539v20.6671" fill="none" stroke="#bdbdbd"/><path d="M542.898,153.317v3.937" fill="none" stroke="#bdbdbd"/><path d="M575.375,153.317v3.937" fill="none" stroke="#bdbdbd"/><path d="M559.136,153.317v3.937" fill="none" stroke="#bdbdbd"/><path d="M591.613,153.317v3.937" fill="none" stroke="#bdbdbd"/><path d="M548.31,153.317v3.937" fill="none" stroke="#bdbdbd"/><path d="M580.788,153.317v3.937" fill="none" stroke="#bdbdbd"/><path d="M564.549,153.317v3.937" fill="none" stroke="#bdbdbd"/><path d="M597.025,153.317v3.937" fill="none" stroke="#bdbdbd"/><path d="M553.723,148.396v8.858" fill="none" stroke="#bdbdbd"/><path d="M586.2,148.396v8.858" fill="none" stroke="#bdbdbd"/><path d="M569.961,136.587v20.667" fill="none" stroke="#bdbdbd"/><path d="M542.898,194.651v3.937" fill="none" stroke="#bdbdbd"/><path d="M575.375,194.651v3.937" fill="none" stroke="#bdbdbd"/><path d="M559.136,194.651v3.937" fill="none" stroke="#bdbdbd"/><path d="M591.613,194.651v3.937" fill="none" stroke="#bdbdbd"/><path d="M548.31,194.651v3.937" fill="none" stroke="#bdbdbd"/><path d="M580.788,194.651v3.937" fill="none" stroke="#bdbdbd"/><path d="M564.549,194.651v3.937" fill="none" stroke="#bdbdbd"/><path d="M597.025,194.651v3.937" fill="none" stroke="#bdbdbd"/><path d="M553.724,189.73v8.858" fill="none" stroke="#bdbdbd"/><path d="M586.2,189.73v8.858" fill="none" stroke="#bdbdbd"/><path d="M569.961,177.921v20.667" fill="none" stroke="#bdbdbd"/><path d="M604.898,69.6504v3.9365" fill="none" stroke="#bdbdbd"/><path d="M637.375,69.6504v3.9365" fill="none" stroke="#bdbdbd"/><path d="M621.136,69.6504v3.9365" fill="none" stroke="#bdbdbd"/><path d="M653.613,69.6504v3.9365" fill="none" stroke="#bdbdbd"/><path d="M610.31,69.6504v3.9365" fill="none" stroke="#bdbdbd"/><path d="M642.787,69.6504v3.9365" fill="none" stroke="#bdbdbd"/><path d="M626.549,69.6504v3.9365" fill="none" stroke="#bdbdbd"/><path d="M659.025,69.6504v3.9365" fill="none" stroke="#bdbdbd"/><path d="M615.724,64.7295v8.8572" fill="none" stroke="#bdbdbd"/><path d="M648.199,64.7295v8.8572" fill="none" stroke="#bdbdbd"/><path d="M631.961,52.9199v20.6669" fill="none" stroke="#bdbdbd"/><path d="M604.898,111.984v3.936" fill="none" stroke="#bdbdbd"/><path d="M637.375,111.984v3.936" fill="none" stroke="#bdbdbd"/><path d="M621.136,111.984v3.936" fill="none" stroke="#bdbdbd"/><path d="M653.613,111.984v3.936" fill="none" stroke="#bdbdbd"/><path d="M610.31,111.984v3.936" fill="none" stroke="#bdbdbd"/><path d="M642.787,111.984v3.936" fill="none" stroke="#bdbdbd"/><path d="M626.549,111.984v3.936" fill="none" stroke="#bdbdbd"/><path d="M659.025,111.984v3.936" fill="none" stroke="#bdbdbd"/><path d="M615.724,107.063v8.858" fill="none" stroke="#bdbdbd"/><path d="M648.199,107.063v8.858" fill="none" stroke="#bdbdbd"/><path d="M631.961,95.2539v20.6671" fill="none" stroke="#bdbdbd"/><path d="M604.899,153.317v3.937" fill="none" stroke="#bdbdbd"/><path d="M637.376,153.317v3.937" fill="none" stroke="#bdbdbd"/><path d="M621.137,153.317v3.937" fill="none" stroke="#bdbdbd"/><path d="M653.614,153.317v3.937" fill="none" stroke="#bdbdbd"/><path d="M610.311,153.317v3.937" fill="none" stroke="#bdbdbd"/><path d="M642.788,153.317v3.937" fill="none" stroke="#bdbdbd"/><path d="M626.55,153.317v3.937" fill="none" stroke="#bdbdbd"/><path d="M659.026,153.317v3.937" fill="none" stroke="#bdbdbd"/><path d="M615.725,148.396v8.858" fill="none" stroke="#bdbdbd"/><path d="M648.201,148.397v8.857" fill="none" stroke="#bdbdbd"/><path d="M631.963,136.587v20.667" fill="none" stroke="#bdbdbd"/><path d="M604.899,194.652v3.936" fill="none" stroke="#bdbdbd"/><path d="M637.375,194.652v3.936" fill="none" stroke="#bdbdbd"/><path d="M621.137,194.652v3.936" fill="none" stroke="#bdbdbd"/><path d="M653.614,194.652v3.936" fill="none" stroke="#bdbdbd"/><path d="M610.311,194.652v3.936" fill="none" stroke="#bdbdbd"/><path d="M642.788,194.652v3.936" fill="none" stroke="#bdbdbd"/><path d="M626.55,194.652v3.936" fill="none" stroke="#bdbdbd"/><path d="M659.026,194.652v3.936" fill="none" stroke="#bdbdbd"/><path d="M615.725,189.731v8.857" fill="none" stroke="#bdbdbd"/><path d="M648.2,189.731v8.858" fill="none" stroke="#bdbdbd"/><path d="M631.962,177.921v20.667" fill="none" stroke="#bdbdbd"/><path d="M666.899,69.6504v3.9365" fill="none" stroke="#bdbdbd"/><path d="M699.376,69.6504v3.9365" fill="none" stroke="#bdbdbd"/><path d="M683.138,69.6504v3.9365" fill="none" stroke="#bdbdbd"/><path d="M715.614,69.6504v3.9365" fill="none" stroke="#bdbdbd"/><path d="M672.312,69.6504v3.9365" fill="none" stroke="#bdbdbd"/><path d="M704.789,69.6504v3.9365" fill="none" stroke="#bdbdbd"/><path d="M688.55,69.6504v3.9365" fill="none" stroke="#bdbdbd"/><path d="M721.027,69.6504v3.9365" fill="none" stroke="#bdbdbd"/><path d="M677.725,64.7295v8.8572" fill="none" stroke="#bdbdbd"/><path d="M710.201,64.7295v8.8572" fill="none" stroke="#bdbdbd"/><path d="M693.962,52.9199v20.6669" fill="none" stroke="#bdbdbd"/><path d="M666.899,111.984v3.936" fill="none" stroke="#bdbdbd"/><path d="M699.376,111.984v3.936" fill="none" stroke="#bdbdbd"/><path d="M683.138,111.984v3.936" fill="none" stroke="#bdbdbd"/><path d="M715.614,111.984v3.936" fill="none" stroke="#bdbdbd"/><path d="M672.312,111.984v3.936" fill="none" stroke="#bdbdbd"/><path d="M704.788,111.984v3.936" fill="none" stroke="#bdbdbd"/><path d="M688.55,111.984v3.936" fill="none" stroke="#bdbdbd"/><path d="M721.027,111.984v3.936" fill="none" stroke="#bdbdbd"/><path d="M677.725,107.063v8.858" fill="none" stroke="#bdbdbd"/><path d="M710.201,107.063v8.858" fill="none" stroke="#bdbdbd"/><path d="M693.962,95.2539v20.6671" fill="none" stroke="#bdbdbd"/><path d="M666.899,153.318v3.937" fill="none" stroke="#bdbdbd"/><path d="M699.376,153.318v3.937" fill="none" stroke="#bdbdbd"/><path d="M683.138,153.318v3.937" fill="none" stroke="#bdbdbd"/><path d="M715.614,153.318v3.937" fill="none" stroke="#bdbdbd"/><path d="M672.313,153.318v3.937" fill="none" stroke="#bdbdbd"/><path d="M704.789,153.318v3.937" fill="none" stroke="#bdbdbd"/><path d="M688.551,153.318v3.937" fill="none" stroke="#bdbdbd"/><path d="M721.028,153.318v3.937" fill="none" stroke="#bdbdbd"/><path d="M677.725,148.397v8.858" fill="none" stroke="#bdbdbd"/><path d="M710.202,148.397v8.858" fill="none" stroke="#bdbdbd"/><path d="M693.963,136.588v20.667" fill="none" stroke="#bdbdbd"/><path d="M666.899,194.652v3.937" fill="none" stroke="#bdbdbd"/><path d="M699.376,194.652v3.937" fill="none" stroke="#bdbdbd"/><path d="M683.138,194.652v3.937" fill="none" stroke="#bdbdbd"/><path d="M715.614,194.652v3.937" fill="none" stroke="#bdbdbd"/><path d="M672.312,194.652v3.937" fill="none" stroke="#bdbdbd"/><path d="M704.788,194.652v3.937" fill="none" stroke="#bdbdbd"/><path d="M688.55,194.652v3.937" fill="none" stroke="#bdbdbd"/><path d="M721.027,194.652v3.937" fill="none" stroke="#bdbdbd"/><path d="M677.725,189.731v8.858" fill="none" stroke="#bdbdbd"/><path d="M710.201,189.731v8.858" fill="none" stroke="#bdbdbd"/><path d="M693.962,177.922v20.667" fill="none" stroke="#bdbdbd"/><path d="M728.9,69.6504v3.9365" fill="none" stroke="#bdbdbd"/><path d="M761.377,69.6504v3.9365" fill="none" stroke="#bdbdbd"/><path d="M745.138,69.6504v3.9365" fill="none" stroke="#bdbdbd"/><path d="M777.615,69.6504v3.9365" fill="none" stroke="#bdbdbd"/><path d="M734.312,69.6504v3.9365" fill="none" stroke="#bdbdbd"/><path d="M766.789,69.6504v3.9365" fill="none" stroke="#bdbdbd"/><path d="M750.551,69.6504v3.9365" fill="none" stroke="#bdbdbd"/><path d="M783.027,69.6504v3.9365" fill="none" stroke="#bdbdbd"/><path d="M739.726,64.7295v8.8572" fill="none" stroke="#bdbdbd"/><path d="M772.202,64.7295v8.8572" fill="none" stroke="#bdbdbd"/><path d="M755.963,52.9199v20.6669" fill="none" stroke="#bdbdbd"/><path d="M728.9,111.984v3.936" fill="none" stroke="#bdbdbd"/><path d="M761.377,111.984v3.936" fill="none" stroke="#bdbdbd"/><path d="M745.138,111.984v3.936" fill="none" stroke="#bdbdbd"/><path d="M777.615,111.984v3.936" fill="none" stroke="#bdbdbd"/><path d="M734.312,111.984v3.936" fill="none" stroke="#bdbdbd"/><path d="M766.789,111.984v3.936" fill="none" stroke="#bdbdbd"/><path d="M750.551,111.984v3.936" fill="none" stroke="#bdbdbd"/><path d="M783.027,111.984v3.936" fill="none" stroke="#bdbdbd"/><path d="M739.726,107.063v8.857" fill="none" stroke="#bdbdbd"/><path d="M772.202,107.063v8.857" fill="none" stroke="#bdbdbd"/><path d="M755.963,95.2529v20.6671" fill="none" stroke="#bdbdbd"/><path d="M728.9,153.318v3.937" fill="none" stroke="#bdbdbd"/><path d="M761.377,153.318v3.937" fill="none" stroke="#bdbdbd"/><path d="M745.138,153.318v3.937" fill="none" stroke="#bdbdbd"/><path d="M777.615,153.318v3.937" fill="none" stroke="#bdbdbd"/><path d="M734.312,153.318v3.937" fill="none" stroke="#bdbdbd"/><path d="M766.789,153.318v3.937" fill="none" stroke="#bdbdbd"/><path d="M750.551,153.318v3.937" fill="none" stroke="#bdbdbd"/><path d="M783.027,153.318v3.937" fill="none" stroke="#bdbdbd"/><path d="M739.726,148.397v8.858" fill="none" stroke="#bdbdbd"/><path d="M772.202,148.397v8.858" fill="none" stroke="#bdbdbd"/><path d="M755.963,136.588v20.667" fill="none" stroke="#bdbdbd"/><path d="M728.9,194.651v3.937" fill="none" stroke="#bdbdbd"/><path d="M761.377,194.651v3.937" fill="none" stroke="#bdbdbd"/><path d="M745.138,194.651v3.937" fill="none" stroke="#bdbdbd"/><path d="M777.615,194.651v3.937" fill="none" stroke="#bdbdbd"/><path d="M734.312,194.651v3.937" fill="none" stroke="#bdbdbd"/><path d="M766.789,194.651v3.937" fill="none" stroke="#bdbdbd"/><path d="M750.551,194.651v3.937" fill="none" stroke="#bdbdbd"/><path d="M783.027,194.651v3.937" fill="none" stroke="#bdbdbd"/><path d="M739.726,189.73v8.858" fill="none" stroke="#bdbdbd"/><path d="M772.202,189.73v8.858" fill="none" stroke="#bdbdbd"/><path d="M755.963,177.921v20.667" fill="none" stroke="#bdbdbd"/><path d="M790.9,69.6504v3.9365" fill="none" stroke="#bdbdbd"/><path d="M823.377,69.6504v3.9365" fill="none" stroke="#bdbdbd"/><path d="M807.138,69.6504v3.9365" fill="none" stroke="#bdbdbd"/><path d="M839.615,69.6504v3.9365" fill="none" stroke="#bdbdbd"/><path d="M796.313,69.6504v3.9365" fill="none" stroke="#bdbdbd"/><path d="M828.789,69.6504v3.9365" fill="none" stroke="#bdbdbd"/><path d="M812.552,69.6504v3.9365" fill="none" stroke="#bdbdbd"/><path d="M845.028,69.6504v3.9365" fill="none" stroke="#bdbdbd"/><path d="M801.726,64.7295v8.8572" fill="none" stroke="#bdbdbd"/><path d="M834.203,64.7295v8.8572" fill="none" stroke="#bdbdbd"/><path d="M817.964,52.9199v20.6669" fill="none" stroke="#bdbdbd"/><path d="M790.9,111.984v3.937" fill="none" stroke="#bdbdbd"/><path d="M823.377,111.984v3.937" fill="none" stroke="#bdbdbd"/><path d="M807.138,111.984v3.937" fill="none" stroke="#bdbdbd"/><path d="M839.615,111.984v3.937" fill="none" stroke="#bdbdbd"/><path d="M796.313,111.984v3.937" fill="none" stroke="#bdbdbd"/><path d="M828.789,111.984v3.937" fill="none" stroke="#bdbdbd"/><path d="M812.552,111.984v3.937" fill="none" stroke="#bdbdbd"/><path d="M845.028,111.984v3.937" fill="none" stroke="#bdbdbd"/><path d="M801.726,107.063v8.858" fill="none" stroke="#bdbdbd"/><path d="M834.203,107.063v8.858" fill="none" stroke="#bdbdbd"/><path d="M817.964,95.2539v20.6671" fill="none" stroke="#bdbdbd"/><path d="M790.9,153.317v3.937" fill="none" stroke="#bdbdbd"/><path d="M823.377,153.317v3.937" fill="none" stroke="#bdbdbd"/><path d="M807.138,153.317v3.937" fill="none" stroke="#bdbdbd"/><path d="M839.615,153.317v3.937" fill="none" stroke="#bdbdbd"/><path d="M796.313,153.317v3.937" fill="none" stroke="#bdbdbd"/><path d="M828.789,153.317v3.937" fill="none" stroke="#bdbdbd"/><path d="M812.551,153.317v3.937" fill="none" stroke="#bdbdbd"/><path d="M845.027,153.317v3.937" fill="none" stroke="#bdbdbd"/><path d="M801.726,148.396v8.858" fill="none" stroke="#bdbdbd"/><path d="M834.203,148.396v8.858" fill="none" stroke="#bdbdbd"/><path d="M817.964,136.587v20.667" fill="none" stroke="#bdbdbd"/><path d="M790.9,194.651v3.937" fill="none" stroke="#bdbdbd"/><path d="M823.377,194.651v3.937" fill="none" stroke="#bdbdbd"/><path d="M807.138,194.651v3.937" fill="none" stroke="#bdbdbd"/><path d="M839.615,194.651v3.937" fill="none" stroke="#bdbdbd"/><path d="M796.313,194.651v3.937" fill="none" stroke="#bdbdbd"/><path d="M828.789,194.651v3.937" fill="none" stroke="#bdbdbd"/><path d="M812.551,194.651v3.937" fill="none" stroke="#bdbdbd"/><path d="M845.027,194.651v3.937" fill="none" stroke="#bdbdbd"/><path d="M801.726,189.73v8.858" fill="none" stroke="#bdbdbd"/><path d="M834.203,189.73v8.858" fill="none" stroke="#bdbdbd"/><path d="M817.964,177.921v20.667" fill="none" stroke="#bdbdbd"/><path d="M852.901,69.6504v3.9365" fill="none" stroke="#bdbdbd"/><path d="M885.378,69.6504v3.9365" fill="none" stroke="#bdbdbd"/><path d="M869.139,69.6504v3.9365" fill="none" stroke="#bdbdbd"/><path d="M901.616,69.6504v3.9365" fill="none" stroke="#bdbdbd"/><path d="M858.313,69.6504v3.9365" fill="none" stroke="#bdbdbd"/><path d="M890.79,69.6504v3.9365" fill="none" stroke="#bdbdbd"/><path d="M874.552,69.6504v3.9365" fill="none" stroke="#bdbdbd"/><path d="M907.028,69.6504v3.9365" fill="none" stroke="#bdbdbd"/><path d="M863.726,64.7295v8.8572" fill="none" stroke="#bdbdbd"/><path d="M896.203,64.7295v8.8572" fill="none" stroke="#bdbdbd"/><path d="M879.964,52.9199v20.6669" fill="none" stroke="#bdbdbd"/><path d="M852.901,111.984v3.936" fill="none" stroke="#bdbdbd"/><path d="M885.378,111.984v3.936" fill="none" stroke="#bdbdbd"/><path d="M869.139,111.984v3.936" fill="none" stroke="#bdbdbd"/><path d="M901.616,111.984v3.936" fill="none" stroke="#bdbdbd"/><path d="M858.313,111.984v3.936" fill="none" stroke="#bdbdbd"/><path d="M890.79,111.984v3.936" fill="none" stroke="#bdbdbd"/><path d="M874.552,111.984v3.936" fill="none" stroke="#bdbdbd"/><path d="M907.028,111.984v3.936" fill="none" stroke="#bdbdbd"/><path d="M863.727,107.063v8.858" fill="none" stroke="#bdbdbd"/><path d="M896.203,107.063v8.858" fill="none" stroke="#bdbdbd"/><path d="M879.964,95.2539v20.6671" fill="none" stroke="#bdbdbd"/><path d="M852.901,153.317v3.937" fill="none" stroke="#bdbdbd"/><path d="M885.378,153.317v3.937" fill="none" stroke="#bdbdbd"/><path d="M869.14,153.317v3.937" fill="none" stroke="#bdbdbd"/><path d="M901.616,153.317v3.937" fill="none" stroke="#bdbdbd"/><path d="M858.314,153.317v3.937" fill="none" stroke="#bdbdbd"/><path d="M890.791,153.317v3.937" fill="none" stroke="#bdbdbd"/><path d="M874.553,153.317v3.937" fill="none" stroke="#bdbdbd"/><path d="M907.029,153.317v3.937" fill="none" stroke="#bdbdbd"/><path d="M863.727,148.396v8.858" fill="none" stroke="#bdbdbd"/><path d="M896.204,148.396v8.858" fill="none" stroke="#bdbdbd"/><path d="M879.965,136.587v20.667" fill="none" stroke="#bdbdbd"/><path d="M852.901,194.651v3.937" fill="none" stroke="#bdbdbd"/><path d="M885.378,194.651v3.937" fill="none" stroke="#bdbdbd"/><path d="M869.14,194.651v3.937" fill="none" stroke="#bdbdbd"/><path d="M901.616,194.651v3.937" fill="none" stroke="#bdbdbd"/><path d="M858.314,194.651v3.937" fill="none" stroke="#bdbdbd"/><path d="M890.79,194.651v3.937" fill="none" stroke="#bdbdbd"/><path d="M874.553,194.651v3.937" fill="none" stroke="#bdbdbd"/><path d="M907.029,194.651v3.937" fill="none" stroke="#bdbdbd"/><path d="M863.727,189.73v8.858" fill="none" stroke="#bdbdbd"/><path d="M896.204,189.73v8.858" fill="none" stroke="#bdbdbd"/><path d="M879.965,177.921v20.667" fill="none" stroke="#bdbdbd"/><path d="M914.902,69.6504v3.9365" fill="none" stroke="#bdbdbd"/><path d="M947.379,69.6504v3.9365" fill="none" stroke="#bdbdbd"/><path d="M931.14,69.6504v3.9365" fill="none" stroke="#bdbdbd"/><path d="M963.617,69.6504v3.9365" fill="none" stroke="#bdbdbd"/><path d="M920.315,69.6504v3.9365" fill="none" stroke="#bdbdbd"/><path d="M952.791,69.6504v3.9365" fill="none" stroke="#bdbdbd"/><path d="M936.554,69.6504v3.9365" fill="none" stroke="#bdbdbd"/><path d="M969.03,69.6504v3.9365" fill="none" stroke="#bdbdbd"/><path d="M925.727,64.7295v8.8572" fill="none" stroke="#bdbdbd"/><path d="M958.205,64.7295v8.8572" fill="none" stroke="#bdbdbd"/><path d="M941.966,52.9199v20.6669" fill="none" stroke="#bdbdbd"/><path d="M914.902,111.984v3.937" fill="none" stroke="#bdbdbd"/><path d="M947.379,111.984v3.937" fill="none" stroke="#bdbdbd"/><path d="M931.14,111.984v3.937" fill="none" stroke="#bdbdbd"/><path d="M963.617,111.984v3.937" fill="none" stroke="#bdbdbd"/><path d="M920.315,111.984v3.937" fill="none" stroke="#bdbdbd"/><path d="M952.791,111.984v3.937" fill="none" stroke="#bdbdbd"/><path d="M936.554,111.984v3.937" fill="none" stroke="#bdbdbd"/><path d="M969.03,111.984v3.937" fill="none" stroke="#bdbdbd"/><path d="M925.727,107.063v8.858" fill="none" stroke="#bdbdbd"/><path d="M958.205,107.063v8.858" fill="none" stroke="#bdbdbd"/><path d="M941.966,95.2539v20.6671" fill="none" stroke="#bdbdbd"/><path d="M914.901,153.317v3.937" fill="none" stroke="#bdbdbd"/><path d="M947.378,153.317v3.937" fill="none" stroke="#bdbdbd"/><path d="M931.139,153.317v3.937" fill="none" stroke="#bdbdbd"/><path d="M963.616,153.317v3.937" fill="none" stroke="#bdbdbd"/><path d="M920.313,153.317v3.937" fill="none" stroke="#bdbdbd"/><path d="M952.79,153.317v3.937" fill="none" stroke="#bdbdbd"/><path d="M936.552,153.317v3.937" fill="none" stroke="#bdbdbd"/><path d="M969.028,153.317v3.937" fill="none" stroke="#bdbdbd"/><path d="M925.727,148.396v8.858" fill="none" stroke="#bdbdbd"/><path d="M958.203,148.396v8.858" fill="none" stroke="#bdbdbd"/><path d="M941.964,136.587v20.667" fill="none" stroke="#bdbdbd"/><path d="M914.901,194.651v3.937" fill="none" stroke="#bdbdbd"/><path d="M947.378,194.651v3.937" fill="none" stroke="#bdbdbd"/><path d="M931.139,194.651v3.937" fill="none" stroke="#bdbdbd"/><path d="M963.616,194.651v3.937" fill="none" stroke="#bdbdbd"/><path d="M920.314,194.651v3.937" fill="none" stroke="#bdbdbd"/><path d="M952.79,194.651v3.937" fill="none" stroke="#bdbdbd"/><path d="M936.553,194.651v3.937" fill="none" stroke="#bdbdbd"/><path d="M969.029,194.651v3.937" fill="none" stroke="#bdbdbd"/><path d="M925.727,189.73v8.858" fill="none" stroke="#bdbdbd"/><path d="M958.204,189.73v8.858" fill="none" stroke="#bdbdbd"/><path d="M941.965,177.921v20.667" fill="none" stroke="#bdbdbd"/><path d="M976.902,69.6504v3.9365" fill="none" stroke="#bdbdbd"/><path d="M1009.38,69.6504v3.9365" fill="none" stroke="#bdbdbd"/><path d="M993.14,69.6504v3.9365" fill="none" stroke="#bdbdbd"/><path d="M1025.62,69.6504v3.9365" fill="none" stroke="#bdbdbd"/><path d="M982.315,69.6504v3.9365" fill="none" stroke="#bdbdbd"/><path d="M1014.8,69.6504v3.9365" fill="none" stroke="#bdbdbd"/><path d="M998.554,69.6504v3.9365" fill="none" stroke="#bdbdbd"/><path d="M1031.03,69.6504v3.9365" fill="none" stroke="#bdbdbd"/><path d="M987.728,64.7295v8.8572" fill="none" stroke="#bdbdbd"/><path d="M1020.21,64.7295v8.8572" fill="none" stroke="#bdbdbd"/><path d="M1003.97,52.9199v20.6669" fill="none" stroke="#bdbdbd"/><path d="M976.902,111.984v3.937" fill="none" stroke="#bdbdbd"/><path d="M1009.38,111.984v3.937" fill="none" stroke="#bdbdbd"/><path d="M993.14,111.984v3.937" fill="none" stroke="#bdbdbd"/><path d="M1025.62,111.984v3.937" fill="none" stroke="#bdbdbd"/><path d="M982.315,111.984v3.937" fill="none" stroke="#bdbdbd"/><path d="M1014.8,111.984v3.937" fill="none" stroke="#bdbdbd"/><path d="M998.554,111.984v3.937" fill="none" stroke="#bdbdbd"/><path d="M1031.03,111.984v3.937" fill="none" stroke="#bdbdbd"/><path d="M987.728,107.063v8.858" fill="none" stroke="#bdbdbd"/><path d="M1020.21,107.063v8.858" fill="none" stroke="#bdbdbd"/><path d="M1003.97,95.2539v20.6671" fill="none" stroke="#bdbdbd"/><path d="M976.902,153.317v3.937" fill="none" stroke="#bdbdbd"/><path d="M1009.38,153.317v3.937" fill="none" stroke="#bdbdbd"/><path d="M993.14,153.317v3.937" fill="none" stroke="#bdbdbd"/><path d="M1025.62,153.317v3.937" fill="none" stroke="#bdbdbd"/><path d="M982.315,153.317v3.937" fill="none" stroke="#bdbdbd"/><path d="M1014.8,153.317v3.937" fill="none" stroke="#bdbdbd"/><path d="M998.554,153.317v3.937" fill="none" stroke="#bdbdbd"/><path d="M1031.03,153.317v3.937" fill="none" stroke="#bdbdbd"/><path d="M987.728,148.396v8.858" fill="none" stroke="#bdbdbd"/><path d="M1020.21,148.396v8.858" fill="none" stroke="#bdbdbd"/><path d="M1003.97,136.587v20.667" fill="none" stroke="#bdbdbd"/><path d="M976.902,194.651v3.937" fill="none" stroke="#bdbdbd"/><path d="M1009.38,194.651v3.937" fill="none" stroke="#bdbdbd"/><path d="M993.14,194.651v3.937" fill="none" stroke="#bdbdbd"/><path d="M1025.62,194.651v3.937" fill="none" stroke="#bdbdbd"/><path d="M982.315,194.651v3.937" fill="none" stroke="#bdbdbd"/><path d="M1014.8,194.651v3.937" fill="none" stroke="#bdbdbd"/><path d="M998.554,194.651v3.937" fill="none" stroke="#bdbdbd"/><path d="M1031.03,194.651v3.937" fill="none" stroke="#bdbdbd"/><path d="M987.728,189.73v8.858" fill="none" stroke="#bdbdbd"/><path d="M1020.21,189.73v8.858" fill="none" stroke="#bdbdbd"/><path d="M1003.97,177.921v20.667" fill="none" stroke="#bdbdbd"/><path d="M1038.91,69.6504v3.9365" fill="none" stroke="#bdbdbd"/><path d="M1071.38,69.6504v3.9365" fill="none" stroke="#bdbdbd"/><path d="M1055.15,69.6504v3.9365" fill="none" stroke="#bdbdbd"/><path d="M1087.62,69.6504v3.9365" fill="none" stroke="#bdbdbd"/><path d="M1044.32,69.6504v3.9365" fill="none" stroke="#bdbdbd"/><path d="M1076.8,69.6504v3.9365" fill="none" stroke="#bdbdbd"/><path d="M1060.56,69.6504v3.9365" fill="none" stroke="#bdbdbd"/><path d="M1093.03,69.6504v3.9365" fill="none" stroke="#bdbdbd"/><path d="M1049.73,64.7295v8.8572" fill="none" stroke="#bdbdbd"/><path d="M1082.21,64.7295v8.8572" fill="none" stroke="#bdbdbd"/><path d="M1065.97,52.9199v20.6669" fill="none" stroke="#bdbdbd"/><path d="M1038.91,111.984v3.936" fill="none" stroke="#bdbdbd"/><path d="M1071.38,111.984v3.936" fill="none" stroke="#bdbdbd"/><path d="M1055.15,111.984v3.936" fill="none" stroke="#bdbdbd"/><path d="M1087.62,111.984v3.936" fill="none" stroke="#bdbdbd"/><path d="M1044.32,111.984v3.936" fill="none" stroke="#bdbdbd"/><path d="M1076.8,111.984v3.936" fill="none" stroke="#bdbdbd"/><path d="M1060.56,111.984v3.936" fill="none" stroke="#bdbdbd"/><path d="M1093.03,111.984v3.936" fill="none" stroke="#bdbdbd"/><path d="M1049.73,107.063v8.858" fill="none" stroke="#bdbdbd"/><path d="M1082.21,107.063v8.858" fill="none" stroke="#bdbdbd"/><path d="M1065.97,95.2539v20.6671" fill="none" stroke="#bdbdbd"/><path d="M1038.91,153.317v3.937" fill="none" stroke="#bdbdbd"/><path d="M1071.38,153.317v3.937" fill="none" stroke="#bdbdbd"/><path d="M1055.15,153.317v3.937" fill="none" stroke="#bdbdbd"/><path d="M1087.62,153.317v3.937" fill="none" stroke="#bdbdbd"/><path d="M1044.32,153.317v3.937" fill="none" stroke="#bdbdbd"/><path d="M1076.8,153.317v3.937" fill="none" stroke="#bdbdbd"/><path d="M1060.56,153.317v3.937" fill="none" stroke="#bdbdbd"/><path d="M1093.04,153.317v3.937" fill="none" stroke="#bdbdbd"/><path d="M1049.73,148.396v8.858" fill="none" stroke="#bdbdbd"/><path d="M1082.21,148.396v8.858" fill="none" stroke="#bdbdbd"/><path d="M1065.97,136.587v20.667" fill="none" stroke="#bdbdbd"/><path d="M1038.91,194.651v3.937" fill="none" stroke="#bdbdbd"/><path d="M1071.38,194.651v3.937" fill="none" stroke="#bdbdbd"/><path d="M1055.15,194.651v3.937" fill="none" stroke="#bdbdbd"/><path d="M1087.62,194.651v3.937" fill="none" stroke="#bdbdbd"/><path d="M1044.32,194.651v3.937" fill="none" stroke="#bdbdbd"/><path d="M1076.8,194.651v3.937" fill="none" stroke="#bdbdbd"/><path d="M1060.56,194.651v3.937" fill="none" stroke="#bdbdbd"/><path d="M1093.03,194.651v3.937" fill="none" stroke="#bdbdbd"/><path d="M1049.73,189.73v8.858" fill="none" stroke="#bdbdbd"/><path d="M1082.21,189.73v8.858" fill="none" stroke="#bdbdbd"/><path d="M1065.97,177.921v20.667" fill="none" stroke="#bdbdbd"/><path d="M1100.91,69.6504v3.9365" fill="none" stroke="#bdbdbd"/><path d="M1133.38,69.6504v3.9365" fill="none" stroke="#bdbdbd"/><path d="M1117.15,69.6504v3.9365" fill="none" stroke="#bdbdbd"/><path d="M1149.62,69.6504v3.9365" fill="none" stroke="#bdbdbd"/><path d="M1106.32,69.6504v3.9365" fill="none" stroke="#bdbdbd"/><path d="M1138.8,69.6504v3.9365" fill="none" stroke="#bdbdbd"/><path d="M1122.56,69.6504v3.9365" fill="none" stroke="#bdbdbd"/><path d="M1155.04,69.6504v3.9365" fill="none" stroke="#bdbdbd"/><path d="M1111.73,64.7295v8.8572" fill="none" stroke="#bdbdbd"/><path d="M1144.21,64.7295v8.8572" fill="none" stroke="#bdbdbd"/><path d="M1127.97,52.9199v20.6669" fill="none" stroke="#bdbdbd"/><path d="M1100.91,111.984v3.936" fill="none" stroke="#bdbdbd"/><path d="M1133.38,111.984v3.936" fill="none" stroke="#bdbdbd"/><path d="M1117.15,111.984v3.936" fill="none" stroke="#bdbdbd"/><path d="M1149.62,111.984v3.936" fill="none" stroke="#bdbdbd"/><path d="M1106.32,111.984v3.936" fill="none" stroke="#bdbdbd"/><path d="M1138.8,111.984v3.936" fill="none" stroke="#bdbdbd"/><path d="M1122.56,111.984v3.936" fill="none" stroke="#bdbdbd"/><path d="M1155.04,111.984v3.936" fill="none" stroke="#bdbdbd"/><path d="M1111.73,107.063v8.858" fill="none" stroke="#bdbdbd"/><path d="M1144.21,107.063v8.858" fill="none" stroke="#bdbdbd"/><path d="M1127.97,95.2539v20.6671" fill="none" stroke="#bdbdbd"/><path d="M1100.91,153.317v3.937" fill="none" stroke="#bdbdbd"/><path d="M1133.38,153.317v3.937" fill="none" stroke="#bdbdbd"/><path d="M1117.15,153.317v3.937" fill="none" stroke="#bdbdbd"/><path d="M1149.62,153.317v3.937" fill="none" stroke="#bdbdbd"/><path d="M1106.32,153.317v3.937" fill="none" stroke="#bdbdbd"/><path d="M1138.8,153.317v3.937" fill="none" stroke="#bdbdbd"/><path d="M1122.56,153.317v3.937" fill="none" stroke="#bdbdbd"/><path d="M1155.04,153.317v3.937" fill="none" stroke="#bdbdbd"/><path d="M1111.73,148.396v8.858" fill="none" stroke="#bdbdbd"/><path d="M1144.21,148.396v8.858" fill="none" stroke="#bdbdbd"/><path d="M1127.97,136.587v20.667" fill="none" stroke="#bdbdbd"/><path d="M1100.91,194.651v3.937" fill="none" stroke="#bdbdbd"/><path d="M1133.38,194.651v3.937" fill="none" stroke="#bdbdbd"/><path d="M1117.15,194.651v3.937" fill="none" stroke="#bdbdbd"/><path d="M1149.62,194.651v3.937" fill="none" stroke="#bdbdbd"/><path d="M1106.32,194.651v3.937" fill="none" stroke="#bdbdbd"/><path d="M1138.8,194.651v3.937" fill="none" stroke="#bdbdbd"/><path d="M1122.56,194.651v3.937" fill="none" stroke="#bdbdbd"/><path d="M1155.04,194.651v3.937" fill="none" stroke="#bdbdbd"/><path d="M1111.73,189.73v8.858" fill="none" stroke="#bdbdbd"/><path d="M1144.21,189.73v8.858" fill="none" stroke="#bdbdbd"/><path d="M1127.97,177.921v20.667" fill="none" stroke="#bdbdbd"/><path d="M1162.91,69.6504v3.9365" fill="none" stroke="#bdbdbd"/><path d="M1195.39,69.6504v3.9365" fill="none" stroke="#bdbdbd"/><path d="M1179.15,69.6504v3.9365" fill="none" stroke="#bdbdbd"/><path d="M1211.62,69.6504v3.9365" fill="none" stroke="#bdbdbd"/><path d="M1168.32,69.6504v3.9365" fill="none" stroke="#bdbdbd"/><path d="M1200.8,69.6504v3.9365" fill="none" stroke="#bdbdbd"/><path d="M1184.56,69.6504v3.9365" fill="none" stroke="#bdbdbd"/><path d="M1217.04,69.6504v3.9365" fill="none" stroke="#bdbdbd"/><path d="M1173.73,64.7295v8.8572" fill="none" stroke="#bdbdbd"/><path d="M1206.21,64.7295v8.8572" fill="none" stroke="#bdbdbd"/><path d="M1189.97,52.9199v20.6669" fill="none" stroke="#bdbdbd"/><path d="M1162.91,111.984v3.937" fill="none" stroke="#bdbdbd"/><path d="M1195.39,111.984v3.937" fill="none" stroke="#bdbdbd"/><path d="M1179.15,111.984v3.937" fill="none" stroke="#bdbdbd"/><path d="M1211.62,111.984v3.937" fill="none" stroke="#bdbdbd"/><path d="M1168.32,111.984v3.937" fill="none" stroke="#bdbdbd"/><path d="M1200.8,111.984v3.937" fill="none" stroke="#bdbdbd"/><path d="M1184.56,111.984v3.937" fill="none" stroke="#bdbdbd"/><path d="M1217.04,111.984v3.937" fill="none" stroke="#bdbdbd"/><path d="M1173.73,107.063v8.858" fill="none" stroke="#bdbdbd"/><path d="M1206.21,107.063v8.858" fill="none" stroke="#bdbdbd"/><path d="M1189.97,95.2539v20.6671" fill="none" stroke="#bdbdbd"/><path d="M1162.91,153.317v3.937" fill="none" stroke="#bdbdbd"/><path d="M1195.39,153.317v3.937" fill="none" stroke="#bdbdbd"/><path d="M1179.15,153.317v3.937" fill="none" stroke="#bdbdbd"/><path d="M1211.62,153.317v3.937" fill="none" stroke="#bdbdbd"/><path d="M1168.32,153.317v3.937" fill="none" stroke="#bdbdbd"/><path d="M1200.8,153.317v3.937" fill="none" stroke="#bdbdbd"/><path d="M1184.56,153.317v3.937" fill="none" stroke="#bdbdbd"/><path d="M1217.04,153.317v3.937" fill="none" stroke="#bdbdbd"/><path d="M1173.73,148.396v8.858" fill="none" stroke="#bdbdbd"/><path d="M1206.21,148.396v8.858" fill="none" stroke="#bdbdbd"/><path d="M1189.97,136.587v20.667" fill="none" stroke="#bdbdbd"/><path d="M1162.91,194.651v3.937" fill="none" stroke="#bdbdbd"/><path d="M1195.39,194.651v3.937" fill="none" stroke="#bdbdbd"/><path d="M1179.15,194.651v3.937" fill="none" stroke="#bdbdbd"/><path d="M1211.62,194.651v3.937" fill="none" stroke="#bdbdbd"/><path d="M1168.32,194.651v3.937" fill="none" stroke="#bdbdbd"/><path d="M1200.8,194.651v3.937" fill="none" stroke="#bdbdbd"/><path d="M1184.56,194.651v3.937" fill="none" stroke="#bdbdbd"/><path d="M1217.04,194.651v3.937" fill="none" stroke="#bdbdbd"/><path d="M1173.73,189.73v8.858" fill="none" stroke="#bdbdbd"/><path d="M1206.21,189.73v8.858" fill="none" stroke="#bdbdbd"/><path d="M1189.97,177.921v20.667" fill="none" stroke="#bdbdbd"/><path d="M1224.91,69.6504v3.9365" fill="none" stroke="#bdbdbd"/><path d="M1257.39,69.6504v3.9365" fill="none" stroke="#bdbdbd"/><path d="M1241.15,69.6504v3.9365" fill="none" stroke="#bdbdbd"/><path d="M1273.62,69.6504v3.9365" fill="none" stroke="#bdbdbd"/><path d="M1230.32,69.6504v3.9365" fill="none" stroke="#bdbdbd"/><path d="M1262.8,69.6504v3.9365" fill="none" stroke="#bdbdbd"/><path d="M1246.56,69.6504v3.9365" fill="none" stroke="#bdbdbd"/><path d="M1279.04,69.6504v3.9365" fill="none" stroke="#bdbdbd"/><path d="M1235.73,64.7295v8.8572" fill="none" stroke="#bdbdbd"/><path d="M1268.21,64.7295v8.8572" fill="none" stroke="#bdbdbd"/><path d="M1251.97,52.9199v20.6669" fill="none" stroke="#bdbdbd"/><path d="M1224.91,111.984v3.937" fill="none" stroke="#bdbdbd"/><path d="M1257.39,111.984v3.937" fill="none" stroke="#bdbdbd"/><path d="M1241.15,111.984v3.937" fill="none" stroke="#bdbdbd"/><path d="M1273.62,111.984v3.937" fill="none" stroke="#bdbdbd"/><path d="M1230.32,111.984v3.937" fill="none" stroke="#bdbdbd"/><path d="M1262.8,111.984v3.937" fill="none" stroke="#bdbdbd"/><path d="M1246.56,111.984v3.937" fill="none" stroke="#bdbdbd"/><path d="M1279.04,111.984v3.937" fill="none" stroke="#bdbdbd"/><path d="M1235.73,107.063v8.858" fill="none" stroke="#bdbdbd"/><path d="M1268.21,107.063v8.858" fill="none" stroke="#bdbdbd"/><path d="M1251.97,95.2539v20.6671" fill="none" stroke="#bdbdbd"/><path d="M1224.91,153.317v3.937" fill="none" stroke="#bdbdbd"/><path d="M1257.39,153.317v3.937" fill="none" stroke="#bdbdbd"/><path d="M1241.15,153.317v3.937" fill="none" stroke="#bdbdbd"/><path d="M1273.63,153.317v3.937" fill="none" stroke="#bdbdbd"/><path d="M1230.32,153.317v3.937" fill="none" stroke="#bdbdbd"/><path d="M1262.8,153.317v3.937" fill="none" stroke="#bdbdbd"/><path d="M1246.56,153.317v3.937" fill="none" stroke="#bdbdbd"/><path d="M1279.04,153.317v3.937" fill="none" stroke="#bdbdbd"/><path d="M1235.74,148.396v8.858" fill="none" stroke="#bdbdbd"/><path d="M1268.21,148.396v8.858" fill="none" stroke="#bdbdbd"/><path d="M1251.97,136.587v20.667" fill="none" stroke="#bdbdbd"/><path d="M1224.91,194.651v3.937" fill="none" stroke="#bdbdbd"/><path d="M1257.39,194.651v3.937" fill="none" stroke="#bdbdbd"/><path d="M1241.15,194.651v3.937" fill="none" stroke="#bdbdbd"/><path d="M1273.62,194.651v3.937" fill="none" stroke="#bdbdbd"/><path d="M1230.32,194.651v3.937" fill="none" stroke="#bdbdbd"/><path d="M1262.8,194.651v3.937" fill="none" stroke="#bdbdbd"/><path d="M1246.56,194.651v3.937" fill="none" stroke="#bdbdbd"/><path d="M1279.04,194.651v3.937" fill="none" stroke="#bdbdbd"/><path d="M1235.73,189.73v8.858" fill="none" stroke="#bdbdbd"/><path d="M1268.21,189.73v8.858" fill="none" stroke="#bdbdbd"/><path d="M1251.97,177.921v20.667" fill="none" stroke="#bdbdbd"/><path d="M1286.91,69.6504v3.9365" fill="none" stroke="#bdbdbd"/><path d="M1319.39,69.6504v3.9365" fill="none" stroke="#bdbdbd"/><path d="M1303.15,69.6504v3.9365" fill="none" stroke="#bdbdbd"/><path d="M1335.62,69.6504v3.9365" fill="none" stroke="#bdbdbd"/><path d="M1292.32,69.6504v3.9365" fill="none" stroke="#bdbdbd"/><path d="M1324.8,69.6504v3.9365" fill="none" stroke="#bdbdbd"/><path d="M1308.56,69.6504v3.9365" fill="none" stroke="#bdbdbd"/><path d="M1341.04,69.6504v3.9365" fill="none" stroke="#bdbdbd"/><path d="M1297.74,64.7295v8.8572" fill="none" stroke="#bdbdbd"/><path d="M1330.21,64.7295v8.8572" fill="none" stroke="#bdbdbd"/><path d="M1313.97,52.9199v20.6669" fill="none" stroke="#bdbdbd"/><path d="M1286.91,111.984v3.936" fill="none" stroke="#bdbdbd"/><path d="M1319.39,111.984v3.936" fill="none" stroke="#bdbdbd"/><path d="M1303.15,111.984v3.936" fill="none" stroke="#bdbdbd"/><path d="M1335.62,111.984v3.936" fill="none" stroke="#bdbdbd"/><path d="M1292.32,111.984v3.936" fill="none" stroke="#bdbdbd"/><path d="M1324.8,111.984v3.936" fill="none" stroke="#bdbdbd"/><path d="M1308.56,111.984v3.936" fill="none" stroke="#bdbdbd"/><path d="M1341.04,111.984v3.936" fill="none" stroke="#bdbdbd"/><path d="M1297.74,107.063v8.858" fill="none" stroke="#bdbdbd"/><path d="M1330.21,107.063v8.858" fill="none" stroke="#bdbdbd"/><path d="M1313.97,95.2539v20.6671" fill="none" stroke="#bdbdbd"/><path d="M1286.91,153.317v3.937" fill="none" stroke="#bdbdbd"/><path d="M1319.39,153.317v3.937" fill="none" stroke="#bdbdbd"/><path d="M1303.15,153.317v3.937" fill="none" stroke="#bdbdbd"/><path d="M1335.62,153.317v3.937" fill="none" stroke="#bdbdbd"/><path d="M1292.32,153.317v3.937" fill="none" stroke="#bdbdbd"/><path d="M1324.8,153.317v3.937" fill="none" stroke="#bdbdbd"/><path d="M1308.56,153.317v3.937" fill="none" stroke="#bdbdbd"/><path d="M1341.04,153.317v3.937" fill="none" stroke="#bdbdbd"/><path d="M1297.74,148.396v8.858" fill="none" stroke="#bdbdbd"/><path d="M1330.21,148.396v8.858" fill="none" stroke="#bdbdbd"/><path d="M1313.97,136.587v20.667" fill="none" stroke="#bdbdbd"/><path d="M1286.91,194.651v3.937" fill="none" stroke="#bdbdbd"/><path d="M1319.39,194.651v3.937" fill="none" stroke="#bdbdbd"/><path d="M1303.15,194.651v3.937" fill="none" stroke="#bdbdbd"/><path d="M1335.62,194.651v3.937" fill="none" stroke="#bdbdbd"/><path d="M1292.32,194.651v3.937" fill="none" stroke="#bdbdbd"/><path d="M1324.8,194.651v3.937" fill="none" stroke="#bdbdbd"/><path d="M1308.56,194.651v3.937" fill="none" stroke="#bdbdbd"/><path d="M1341.04,194.651v3.937" fill="none" stroke="#bdbdbd"/><path d="M1297.74,189.73v8.858" fill="none" stroke="#bdbdbd"/><path d="M1330.21,189.73v8.858" fill="none" stroke="#bdbdbd"/><path d="M1313.97,177.921v20.667" fill="none" stroke="#bdbdbd"/><path d="M1348.91,69.6504v3.9365" fill="none" stroke="#bdbdbd"/><path d="M1381.39,69.6504v3.9365" fill="none" stroke="#bdbdbd"/><path d="M1365.15,69.6504v3.9365" fill="none" stroke="#bdbdbd"/><path d="M1397.63,69.6504v3.9365" fill="none" stroke="#bdbdbd"/><path d="M1354.32,69.6504v3.9365" fill="none" stroke="#bdbdbd"/><path d="M1386.8,69.6504v3.9365" fill="none" stroke="#bdbdbd"/><path d="M1370.56,69.6504v3.9365" fill="none" stroke="#bdbdbd"/><path d="M1403.04,69.6504v3.9365" fill="none" stroke="#bdbdbd"/><path d="M1359.74,64.7295v8.8572" fill="none" stroke="#bdbdbd"/><path d="M1392.21,64.7295v8.8572" fill="none" stroke="#bdbdbd"/><path d="M1375.97,52.9199v20.6669" fill="none" stroke="#bdbdbd"/><path d="M1348.91,111.984v3.937" fill="none" stroke="#bdbdbd"/><path d="M1381.39,111.984v3.937" fill="none" stroke="#bdbdbd"/><path d="M1365.15,111.984v3.937" fill="none" stroke="#bdbdbd"/><path d="M1397.63,111.984v3.937" fill="none" stroke="#bdbdbd"/><path d="M1354.32,111.984v3.937" fill="none" stroke="#bdbdbd"/><path d="M1386.8,111.984v3.937" fill="none" stroke="#bdbdbd"/><path d="M1370.56,111.984v3.937" fill="none" stroke="#bdbdbd"/><path d="M1403.04,111.984v3.937" fill="none" stroke="#bdbdbd"/><path d="M1359.74,107.063v8.858" fill="none" stroke="#bdbdbd"/><path d="M1392.21,107.063v8.858" fill="none" stroke="#bdbdbd"/><path d="M1375.97,95.2539v20.6671" fill="none" stroke="#bdbdbd"/><path d="M1348.91,153.317v3.937" fill="none" stroke="#bdbdbd"/><path d="M1381.39,153.317v3.937" fill="none" stroke="#bdbdbd"/><path d="M1365.15,153.317v3.937" fill="none" stroke="#bdbdbd"/><path d="M1397.63,153.317v3.937" fill="none" stroke="#bdbdbd"/><path d="M1354.32,153.317v3.937" fill="none" stroke="#bdbdbd"/><path d="M1386.8,153.317v3.937" fill="none" stroke="#bdbdbd"/><path d="M1370.56,153.317v3.937" fill="none" stroke="#bdbdbd"/><path d="M1403.04,153.317v3.937" fill="none" stroke="#bdbdbd"/><path d="M1359.74,148.396v8.858" fill="none" stroke="#bdbdbd"/><path d="M1392.21,148.396v8.858" fill="none" stroke="#bdbdbd"/><path d="M1375.97,136.587v20.667" fill="none" stroke="#bdbdbd"/><path d="M1348.91,194.651v3.937" fill="none" stroke="#bdbdbd"/><path d="M1381.39,194.651v3.937" fill="none" stroke="#bdbdbd"/><path d="M1365.15,194.651v3.937" fill="none" stroke="#bdbdbd"/><path d="M1397.63,194.651v3.937" fill="none" stroke="#bdbdbd"/><path d="M1354.32,194.651v3.937" fill="none" stroke="#bdbdbd"/><path d="M1386.8,194.651v3.937" fill="none" stroke="#bdbdbd"/><path d="M1370.56,194.651v3.937" fill="none" stroke="#bdbdbd"/><path d="M1403.04,194.651v3.937" fill="none" stroke="#bdbdbd"/><path d="M1359.74,189.73v8.858" fill="none" stroke="#bdbdbd"/><path d="M1392.21,189.73v8.858" fill="none" stroke="#bdbdbd"/><path d="M1375.97,177.921v20.667" fill="none" stroke="#bdbdbd"/><path d="M1410.91,69.6504v3.9365" fill="none" stroke="#bdbdbd"/><path d="M1443.39,69.6504v3.9365" fill="none" stroke="#bdbdbd"/><path d="M1427.15,69.6504v3.9365" fill="none" stroke="#bdbdbd"/><path d="M1459.63,69.6504v3.9365" fill="none" stroke="#bdbdbd"/><path d="M1416.32,69.6504v3.9365" fill="none" stroke="#bdbdbd"/><path d="M1448.8,69.6504v3.9365" fill="none" stroke="#bdbdbd"/><path d="M1432.56,69.6504v3.9365" fill="none" stroke="#bdbdbd"/><path d="M1465.04,69.6504v3.9365" fill="none" stroke="#bdbdbd"/><path d="M1421.74,64.7295v8.8572" fill="none" stroke="#bdbdbd"/><path d="M1454.21,64.7295v8.8572" fill="none" stroke="#bdbdbd"/><path d="M1437.97,52.9199v20.6669" fill="none" stroke="#bdbdbd"/><path d="M1410.91,111.984v3.937" fill="none" stroke="#bdbdbd"/><path d="M1443.39,111.984v3.937" fill="none" stroke="#bdbdbd"/><path d="M1427.15,111.984v3.937" fill="none" stroke="#bdbdbd"/><path d="M1459.63,111.984v3.937" fill="none" stroke="#bdbdbd"/><path d="M1416.32,111.984v3.937" fill="none" stroke="#bdbdbd"/><path d="M1448.8,111.984v3.937" fill="none" stroke="#bdbdbd"/><path d="M1432.56,111.984v3.937" fill="none" stroke="#bdbdbd"/><path d="M1465.04,111.984v3.937" fill="none" stroke="#bdbdbd"/><path d="M1421.74,107.063v8.858" fill="none" stroke="#bdbdbd"/><path d="M1454.21,107.063v8.858" fill="none" stroke="#bdbdbd"/><path d="M1437.97,95.2539v20.6671" fill="none" stroke="#bdbdbd"/><path d="M1410.91,153.317v3.937" fill="none" stroke="#bdbdbd"/><path d="M1443.39,153.317v3.937" fill="none" stroke="#bdbdbd"/><path d="M1427.15,153.317v3.937" fill="none" stroke="#bdbdbd"/><path d="M1459.63,153.317v3.937" fill="none" stroke="#bdbdbd"/><path d="M1416.33,153.317v3.937" fill="none" stroke="#bdbdbd"/><path d="M1448.8,153.317v3.937" fill="none" stroke="#bdbdbd"/><path d="M1432.56,153.317v3.937" fill="none" stroke="#bdbdbd"/><path d="M1465.04,153.317v3.937" fill="none" stroke="#bdbdbd"/><path d="M1421.74,148.396v8.858" fill="none" stroke="#bdbdbd"/><path d="M1454.21,148.396v8.858" fill="none" stroke="#bdbdbd"/><path d="M1437.98,136.587v20.667" fill="none" stroke="#bdbdbd"/><path d="M1410.91,194.651v3.937" fill="none" stroke="#bdbdbd"/><path d="M1443.39,194.651v3.937" fill="none" stroke="#bdbdbd"/><path d="M1427.15,194.651v3.937" fill="none" stroke="#bdbdbd"/><path d="M1459.63,194.651v3.937" fill="none" stroke="#bdbdbd"/><path d="M1416.33,194.651v3.937" fill="none" stroke="#bdbdbd"/><path d="M1448.8,194.651v3.937" fill="none" stroke="#bdbdbd"/><path d="M1432.56,194.651v3.937" fill="none" stroke="#bdbdbd"/><path d="M1465.04,194.651v3.937" fill="none" stroke="#bdbdbd"/><path d="M1421.74,189.73v8.858" fill="none" stroke="#bdbdbd"/><path d="M1454.21,189.73v8.858" fill="none" stroke="#bdbdbd"/><path d="M1437.98,177.921v20.667" fill="none" stroke="#bdbdbd"/><path d="M1472.91,69.6504v3.9365" fill="none" stroke="#bdbdbd"/><path d="M1505.39,69.6504v3.9365" fill="none" stroke="#bdbdbd"/><path d="M1489.15,69.6504v3.9365" fill="none" stroke="#bdbdbd"/><path d="M1521.63,69.6504v3.9365" fill="none" stroke="#bdbdbd"/><path d="M1478.33,69.6504v3.9365" fill="none" stroke="#bdbdbd"/><path d="M1510.8,69.6504v3.9365" fill="none" stroke="#bdbdbd"/><path d="M1494.56,69.6504v3.9365" fill="none" stroke="#bdbdbd"/><path d="M1527.04,69.6504v3.9365" fill="none" stroke="#bdbdbd"/><path d="M1483.74,64.7295v8.8572" fill="none" stroke="#bdbdbd"/><path d="M1516.21,64.7295v8.8572" fill="none" stroke="#bdbdbd"/><path d="M1499.98,52.9199v20.6669" fill="none" stroke="#bdbdbd"/><path d="M1472.91,111.984v3.937" fill="none" stroke="#bdbdbd"/><path d="M1505.39,111.984v3.937" fill="none" stroke="#bdbdbd"/><path d="M1489.15,111.984v3.937" fill="none" stroke="#bdbdbd"/><path d="M1521.63,111.984v3.937" fill="none" stroke="#bdbdbd"/><path d="M1478.33,111.984v3.937" fill="none" stroke="#bdbdbd"/><path d="M1510.8,111.984v3.937" fill="none" stroke="#bdbdbd"/><path d="M1494.56,111.984v3.937" fill="none" stroke="#bdbdbd"/><path d="M1527.04,111.984v3.937" fill="none" stroke="#bdbdbd"/><path d="M1483.74,107.063v8.858" fill="none" stroke="#bdbdbd"/><path d="M1516.21,107.063v8.858" fill="none" stroke="#bdbdbd"/><path d="M1499.98,95.2539v20.6671" fill="none" stroke="#bdbdbd"/><path d="M1472.91,153.317v3.937" fill="none" stroke="#bdbdbd"/><path d="M1505.39,153.317v3.937" fill="none" stroke="#bdbdbd"/><path d="M1489.15,153.317v3.937" fill="none" stroke="#bdbdbd"/><path d="M1521.63,153.317v3.937" fill="none" stroke="#bdbdbd"/><path d="M1478.32,153.317v3.937" fill="none" stroke="#bdbdbd"/><path d="M1510.8,153.317v3.937" fill="none" stroke="#bdbdbd"/><path d="M1494.56,153.317v3.937" fill="none" stroke="#bdbdbd"/><path d="M1527.04,153.317v3.937" fill="none" stroke="#bdbdbd"/><path d="M1483.74,148.396v8.858" fill="none" stroke="#bdbdbd"/><path d="M1516.21,148.396v8.858" fill="none" stroke="#bdbdbd"/><path d="M1499.97,136.587v20.667" fill="none" stroke="#bdbdbd"/><path d="M1472.91,194.651v3.937" fill="none" stroke="#bdbdbd"/><path d="M1505.39,194.651v3.937" fill="none" stroke="#bdbdbd"/><path d="M1489.15,194.651v3.937" fill="none" stroke="#bdbdbd"/><path d="M1521.63,194.651v3.937" fill="none" stroke="#bdbdbd"/><path d="M1478.32,194.651v3.937" fill="none" stroke="#bdbdbd"/><path d="M1510.8,194.651v3.937" fill="none" stroke="#bdbdbd"/><path d="M1494.56,194.651v3.937" fill="none" stroke="#bdbdbd"/><path d="M1527.04,194.651v3.937" fill="none" stroke="#bdbdbd"/><path d="M1483.74,189.73v8.858" fill="none" stroke="#bdbdbd"/><path d="M1516.21,189.73v8.858" fill="none" stroke="#bdbdbd"/><path d="M1499.97,177.921v20.667" fill="none" stroke="#bdbdbd"/><path d="M166.956,23v175" fill="none" stroke="#bdbdbd"/><path d="M228.958,23v175" fill="none" stroke="#bdbdbd"/><path d="M290.956,23v175" fill="none" stroke="#bdbdbd"/><path d="M352.956,23v175" fill="none" stroke="#bdbdbd"/><path d="M414.956,23v175" fill="none" stroke="#bdbdbd"/><path d="M476.96,23v175" fill="none" stroke="#bdbdbd"/><path d="M538.961,23v175" fill="none" stroke="#bdbdbd"/><path d="M600.962,23v175" fill="none" stroke="#bdbdbd"/><path d="M662.956,23v175" fill="none" stroke="#bdbdbd"/><path d="M724.964,23v175" fill="none" stroke="#bdbdbd"/><path d="M786.964,23v175" fill="none" stroke="#bdbdbd"/><path d="M848.956,23v175" fill="none" stroke="#bdbdbd"/><path d="M910.965,23v175" fill="none" stroke="#bdbdbd"/><path d="M972.966,23v175" fill="none" stroke="#bdbdbd"/><path d="M1034.97,23v175" fill="none" stroke="#bdbdbd"/><path d="M1096.96,23v175" fill="none" stroke="#bdbdbd"/><path d="M1158.96,23v175" fill="none" stroke="#bdbdbd"/><path d="M1220.97,23v175" fill="none" stroke="#bdbdbd"/><path d="M1282.97,23v175" fill="none" stroke="#bdbdbd"/><path d="M1344.97,23v175" fill="none" stroke="#bdbdbd"/><path d="M1406.96,23v175" fill="none" stroke="#bdbdbd"/><path d="M1468.96,23v175" fill="none" stroke="#bdbdbd"/><path d="M1530.98,23v175" fill="none" stroke="#bdbdbd"/><path d="M1531.46,32.5h-1489.0039" fill="none" stroke="#bdbdbd"/><path d="M1531.46,73.5h-1489.0039" fill="none" stroke="#bdbdbd"/><path d="M1531.46,115.5h-1489.0039" fill="none" stroke="#bdbdbd"/><path d="M1531.46,198.104h-1489.0039" fill="none" stroke="#bdbdbd"/><path d="M1531.46,157.168h-1489.0039" fill="none" stroke="#bdbdbd"/><path d="M48.0802,11.0001h-2.288v-7.47198l-3.008,7.47198h-.992l-3.008-7.47198v7.47198h-2.272v-10.671975h3.184l2.592,6.447995l2.592-6.447995h3.2v10.671975Z" transform="translate(5.742553 0)" fill="#858e9e"/><path d="M105.976,11.0001h-2.272v-7.74398l-1.776,1.80801-1.296-1.36001l3.36-3.375995h1.984v10.671975Z" fill="#858e9e"/><path d="M170.24,11h-8.032v-1.77603c2.283-1.696,3.792-2.90133,4.528-3.616.747-.72533,1.12-1.40267,1.12-2.032c0-.43733-.171-.77867-.512-1.024s-.747-.368-1.216-.368c-1.12,0-2.075.41067-2.864,1.232l-1.296-1.504c.501-.576,1.115-1.008001,1.84-1.296001.736-.29867,1.493-.448,2.272-.448c1.173,0,2.144.30933,2.912.928001.779.61867,1.168,1.44533,1.168,2.48c0,.87467-.347,1.73333-1.04,2.576-.683.832-1.76,1.7813-3.232,2.848h4.352v2.00003Z" fill="#858e9e"/><path d="M227.984,11.192c-.939,0-1.771-.1547-2.496-.464-.725-.32-1.296-.73603-1.712-1.24803l1.184-1.52c.363.3733.811.672,1.344.896.533.2133,1.067.32,1.6.32.64,0,1.136-.1227,1.488-.368.352-.256.528-.5867.528-.992c0-.4267-.171-.736-.512-.928-.341-.20267-.885-.304-1.632-.304-.672,0-1.115.01067-1.328.032v-2.048c.128.01067.571.016,1.328.016c1.312,0,1.968-.37867,1.968-1.136c0-.40533-.187-.71467-.56-.928-.363-.224-.837-.336-1.424-.336-1.035,0-1.936.368-2.704,1.104l-1.136-1.424c1.003-1.130671,2.363-1.696001,4.08-1.696001c1.248,0,2.229.26133,2.944.784.725.522671,1.088,1.226671,1.088,2.112001c0,.64-.229,1.17867-.688,1.616-.459.42667-1.008.69867-1.648.816.629.064,1.2.32533,1.712.784.523.448.784,1.04.784,1.776c0,.928-.384,1.6853-1.152,2.27203-.768.576-1.787.864-3.056.864Z" fill="#858e9e"/><path d="M293.232,11.0001h-2.272v-2.20798h-5.104v-1.792l4.24-6.671995h3.136v6.463995h1.376v2h-1.376v2.20798ZM290.96,6.79212v-4.448l-2.88,4.448h2.88Z" fill="#858e9e"/><path d="M352.352,11.1921c-1.76,0-3.131-.5333-4.112-1.59998l1.264-1.58399c.747.7787,1.691,1.16799,2.832,1.16799.608,0,1.088-.1493,1.44-.448.363-.3093.544-.688.544-1.136c0-.48-.171-.864-.512-1.152s-.811-.43199-1.408-.43199c-.885,0-1.632.28799-2.24.86399l-1.584-.41599v-6.128005h7.328v1.999995h-5.056v2.608c.597-.59733,1.381-.896,2.352-.896.949,0,1.755.31468,2.416.94401.672.62933,1.008,1.46667,1.008,2.512c0,1.1307-.389,2.03199-1.168,2.70397-.779.6613-1.813.992-3.104.992Z" fill="#858e9e"/><path d="M414.608,11.192c-1.536,0-2.688-.512-3.456-1.53603s-1.152-2.3467-1.152-3.968c0-1.65333.443-2.98667,1.328-4s2.101-1.520001,3.648-1.520001c1.237,0,2.288.368,3.152,1.104001l-1.024,1.744c-.587-.55467-1.296-.832-2.128-.832-.779,0-1.419.29333-1.92.88-.501.576-.752,1.29067-.752,2.144c0,.096.005.17067.016.224.267-.384.651-.70933,1.152-.976s1.029-.4,1.584-.4c1.013,0,1.872.30933,2.576.928.704.608,1.056,1.456,1.056,2.544c0,1.056-.379,1.9307-1.136,2.62403s-1.739,1.04-2.944,1.04Zm-.128-2.01603c.576,0,1.035-.16,1.376-.48.352-.32.528-.6827.528-1.088c0-.5227-.192-.91733-.576-1.184-.384-.27733-.853-.416-1.408-.416-.853,0-1.547.336-2.08,1.008.053.5973.256,1.1093.608,1.536.352.416.869.624,1.552.624Z" fill="#858e9e"/><path d="M476.888,11.0001h-2.496l3.824-8.67198h-5.376v-1.999995h8.016v1.584005l-3.968,9.08797Z" fill="#858e9e"/><path d="M538.304,11.192c-1.205,0-2.224-.256-3.056-.768-.821-.51203-1.232-1.24273-1.232-2.19203c0-.6187.213-1.168.64-1.648.427-.49067.976-.85333,1.648-1.088-1.408-.49067-2.112-1.328-2.112-2.512c0-.928.405-1.62667,1.216-2.096001.821-.48,1.787-.72,2.896-.72.704,0,1.355.09067,1.952.272s1.104.496,1.52.944001c.427.43733.64.97067.64,1.6c0,1.17333-.709,2.01067-2.128,2.512.672.23467,1.221.59733,1.648,1.088.437.48.656,1.0293.656,1.648c0,.9387-.416,1.6693-1.248,2.19203-.832.512-1.845.768-3.04.768Zm0-6.59203c.437-.064.843-.20267,1.216-.416.384-.21333.576-.496.576-.848c0-.37333-.165-.66667-.496-.88-.331-.224-.763-.336-1.296-.336s-.971.112-1.312.336c-.331.21333-.496.50667-.496.88c0,.352.192.63467.576.848s.795.352,1.232.416Zm0,4.64c.555,0,1.024-.1173,1.408-.352.384-.2453.576-.56.576-.944c0-.3947-.219-.7147-.656-.96-.427-.24533-.869-.4-1.328-.464-.459.064-.907.21867-1.344.464-.427.2453-.64.5653-.64.96c0,.384.187.6987.56.944.384.2347.859.352,1.424.352Z" fill="#858e9e"/><path d="M599.664,11.1763c-1.269,0-2.315-.368-3.136-1.104l1.008-1.74396c.587.5547,1.296.832,2.128.832s1.483-.2933,1.952-.88c.48-.5973.72-1.30667.72-2.128v-.24c-.277.384-.667.70933-1.168.976s-1.029.4-1.584.4c-1.013,0-1.877-.304-2.592-.912-.704-.61867-1.056-1.472-1.056-2.56c0-1.056.379-1.93067,1.136-2.624.768-.693326,1.755-1.039996,2.96-1.039996c1.035,0,1.904.256,2.608.768.715.511996,1.221,1.173326,1.52,1.983996.309.8.464,1.72267.464,2.768c0,1.6427-.443,2.9707-1.328,3.984-.875,1.01326-2.085,1.51996-3.632,1.51996Zm.56-5.83996c.853,0,1.552-.33067,2.096-.992-.053-.59733-.256-1.10933-.608-1.536s-.875-.64-1.568-.64c-.576,0-1.035.16-1.376.48s-.512.68267-.512,1.088c0,.52267.192.92267.576,1.2.384.26667.848.4,1.392.4Z" fill="#858e9e"/><path d="M659.976,11h-2.272v-7.74403l-1.776,1.808-1.296-1.36l3.36-3.376001h1.984v10.672031Zm8.498-.624c-.683.544-1.509.816-2.48.816s-1.803-.272-2.496-.816c-.683-.55473-1.173-1.23733-1.472-2.04803s-.448-1.696-.448-2.656.149-1.84533.448-2.656.789-1.488,1.472-2.032001c.693-.544,1.525-.816,2.496-.816s1.797.272,2.48.816s1.173,1.221331,1.472,2.032001c.309.81067.464,1.696.464,2.656s-.155,1.8453-.464,2.656c-.299.8107-.789,1.4933-1.472,2.04803Zm-4.08-2.16003c.341.64.875.96,1.6.96s1.253-.32,1.584-.96c.341-.64.512-1.488.512-2.544s-.171-1.89867-.512-2.528c-.331-.64-.859-.96-1.584-.96s-1.259.32-1.6.96c-.341.62933-.512,1.472-.512,2.528s.171,1.904.512,2.544Z" fill="#858e9e"/><path d="M722.976,11.0001h-2.272v-7.74398l-1.776,1.80801-1.296-1.36001l3.36-3.375995h1.984v10.671975Zm6.578,0h-2.272v-7.74398l-1.776,1.80801-1.296-1.36001l3.36-3.375995h1.984v10.671975Z" fill="#858e9e"/><path d="M791.064,11.0001h-2.192l-5.088-6.95998v6.95998h-2.272v-10.671975h2.336l4.944,6.703995v-6.703995h2.272v10.671975Z" fill="#858e9e"/><path d="M850.976,11.0001h-2.272v-7.74398l-1.776,1.80801-1.296-1.36001l3.36-3.375995h1.984v10.671975Z" fill="#858e9e"/><path d="M914.24,11h-8.032v-1.77603c2.283-1.696,3.792-2.90133,4.528-3.616.747-.72533,1.12-1.40267,1.12-2.032c0-.43733-.171-.77867-.512-1.024s-.747-.368-1.216-.368c-1.12,0-2.075.41067-2.864,1.232l-1.296-1.504c.501-.576,1.115-1.008001,1.84-1.296001.736-.29867,1.493-.448,2.272-.448c1.173,0,2.144.30933,2.912.928001.779.61867,1.168,1.44533,1.168,2.48c0,.87467-.347,1.73333-1.04,2.576-.683.832-1.76,1.7813-3.232,2.848h4.352v2.00003Z" fill="#858e9e"/><path d="M971.984,11.192c-.939,0-1.771-.1547-2.496-.464-.725-.32-1.296-.73603-1.712-1.24803l1.184-1.52c.363.3733.811.672,1.344.896.533.2133,1.067.32,1.6.32.64,0,1.136-.1227,1.488-.368.352-.256.528-.5867.528-.992c0-.4267-.171-.736-.512-.928-.341-.20267-.885-.304-1.632-.304-.672,0-1.115.01067-1.328.032v-2.048c.128.01067.571.016,1.328.016c1.312,0,1.968-.37867,1.968-1.136c0-.40533-.187-.71467-.56-.928-.363-.224-.837-.336-1.424-.336-1.035,0-1.936.368-2.704,1.104l-1.136-1.424c1.003-1.130671,2.363-1.696001,4.08-1.696001c1.248,0,2.229.26133,2.944.784.725.522671,1.088,1.226671,1.088,2.112001c0,.64-.229,1.17867-.688,1.616-.459.42667-1.008.69867-1.648.816.629.064,1.2.32533,1.712.784.523.448.784,1.04.784,1.776c0,.928-.384,1.6853-1.152,2.27203-.768.576-1.787.864-3.056.864Z" fill="#858e9e"/><path d="M1037.24,11.0001h-2.28v-2.20798h-5.1v-1.792l4.24-6.671995h3.14v6.463995h1.37v2h-1.37v2.20798Zm-2.28-4.20798v-4.448l-2.88,4.448h2.88Z" fill="#858e9e"/><path d="M1096.36,11.1921c-1.76,0-3.13-.5333-4.12-1.59998l1.27-1.58399c.74.7787,1.69,1.16799,2.83,1.16799.61,0,1.09-.1493,1.44-.448.36-.3093.54-.688.54-1.136c0-.48-.17-.864-.51-1.152s-.81-.43199-1.41-.43199c-.88,0-1.63.28799-2.24.86399l-1.58-.41599v-6.128005h7.33v1.999995h-5.06v2.608c.6-.59733,1.38-.896,2.35-.896.95,0,1.76.31468,2.42.94401.67.62933,1.01,1.46667,1.01,2.512c0,1.1307-.39,2.03199-1.17,2.70397-.78.6613-1.81.992-3.1.992Z" fill="#858e9e"/><path d="M1158.61,11.192c-1.53,0-2.69-.512-3.45-1.53603-.77-1.024-1.16-2.3467-1.16-3.968c0-1.65333.45-2.98667,1.33-4c.89-1.013331,2.1-1.520001,3.65-1.520001c1.24,0,2.29.368,3.15,1.104001l-1.02,1.744c-.59-.55467-1.3-.832-2.13-.832-.78,0-1.42.29333-1.92.88-.5.576-.75,1.29067-.75,2.144c0,.096,0,.17067.01.224.27-.384.65-.70933,1.16-.976.5-.26667,1.03-.4,1.58-.4c1.01,0,1.87.30933,2.58.928.7.608,1.05,1.456,1.05,2.544c0,1.056-.38,1.9307-1.13,2.62403-.76.6933-1.74,1.04-2.95,1.04Zm-.13-2.01603c.58,0,1.04-.16,1.38-.48.35-.32.53-.6827.53-1.088c0-.5227-.19-.91733-.58-1.184-.38-.27733-.85-.416-1.41-.416-.85,0-1.54.336-2.08,1.008.06.5973.26,1.1093.61,1.536.35.416.87.624,1.55.624Z" fill="#858e9e"/><path d="M1220.89,11.0001h-2.49l3.82-8.67198h-5.38v-1.999995h8.02v1.584005l-3.97,9.08797Z" fill="#858e9e"/><path d="M1282.31,11.192c-1.21,0-2.23-.256-3.06-.768-.82-.51203-1.23-1.24273-1.23-2.19203c0-.6187.21-1.168.64-1.648.43-.49067.98-.85333,1.65-1.088-1.41-.49067-2.11-1.328-2.11-2.512c0-.928.4-1.62667,1.21-2.096001.82-.48,1.79-.72,2.9-.72.7,0,1.35.09067,1.95.272s1.1.496,1.52.944001c.43.43733.64.97067.64,1.6c0,1.17333-.71,2.01067-2.13,2.512.67.23467,1.22.59733,1.65,1.088.44.48.66,1.0293.66,1.648c0,.9387-.42,1.6693-1.25,2.19203-.83.512-1.85.768-3.04.768Zm0-6.59203c.44-.064.84-.20267,1.21-.416.39-.21333.58-.496.58-.848c0-.37333-.17-.66667-.5-.88-.33-.224-.76-.336-1.29-.336-.54,0-.97.112-1.31.336-.33.21333-.5.50667-.5.88c0,.352.19.63467.58.848.38.21333.79.352,1.23.416Zm0,4.64c.55,0,1.02-.1173,1.41-.352.38-.2453.57-.56.57-.944c0-.3947-.22-.7147-.65-.96s-.87-.4-1.33-.464c-.46.064-.91.21867-1.35.464-.42.2453-.64.5653-.64.96c0,.384.19.6987.56.944.39.2347.86.352,1.43.352Z" fill="#858e9e"/><path d="M1343.67,11.1763c-1.27,0-2.32-.368-3.14-1.104l1.01-1.74396c.59.5547,1.3.832,2.13.832s1.48-.2933,1.95-.88c.48-.5973.72-1.30667.72-2.128v-.24c-.28.384-.67.70933-1.17.976s-1.03.4-1.58.4c-1.02,0-1.88-.304-2.59-.912-.71-.61867-1.06-1.472-1.06-2.56c0-1.056.38-1.93067,1.14-2.624s1.75-1.039996,2.96-1.039996c1.03,0,1.9.256,2.6.768.72.511996,1.23,1.173326,1.52,1.983996.31.8.47,1.72267.47,2.768c0,1.6427-.44,2.9707-1.33,3.984-.87,1.01326-2.09,1.51996-3.63,1.51996Zm.56-5.83996c.85,0,1.55-.33067,2.09-.992-.05-.59733-.25-1.10933-.6-1.536-.36-.42667-.88-.64-1.57-.64-.58,0-1.04.16-1.38.48s-.51.68267-.51,1.088c0,.52267.19.92267.58,1.2.38.26667.84.4,1.39.4Z" fill="#858e9e"/><path d="M1403.98,11h-2.27v-7.74403l-1.78,1.808-1.29-1.36L1402,0.327969h1.98v10.672031Zm8.5-.624c-.68.544-1.51.816-2.48.816s-1.8-.272-2.5-.816c-.68-.55473-1.17-1.23733-1.47-2.04803s-.45-1.696-.45-2.656.15-1.84533.45-2.656.79-1.488,1.47-2.032001c.7-.544,1.53-.816,2.5-.816s1.8.272,2.48.816s1.17,1.221331,1.47,2.032001c.31.81067.46,1.696.46,2.656s-.15,1.8453-.46,2.656c-.3.8107-.79,1.4933-1.47,2.04803Zm-4.08-2.16003c.34.64.87.96,1.6.96.72,0,1.25-.32,1.58-.96.34-.64.51-1.488.51-2.544s-.17-1.89867-.51-2.528c-.33-.64-.86-.96-1.58-.96-.73,0-1.26.32-1.6.96-.34.62933-.51,1.472-.51,2.528s.17,1.904.51,2.544Z" fill="#858e9e"/><path d="M1466.98,11.0001h-2.27v-7.74398l-1.78,1.80801-1.29-1.36001L1465,0.328125h1.98v10.671975Zm6.58,0h-2.27v-7.74398l-1.78,1.80801-1.3-1.36001l3.36-3.375995h1.99v10.671975Z" fill="#858e9e"/><path d="M1536.08,11.0001h-2.28v-7.47198l-3.01,7.47198h-.99l-3.01-7.47198v7.47198h-2.27v-10.671975h3.18l2.59,6.447995l2.59-6.447995h3.2v10.671975Z" transform="translate(-4.62 0)" fill="#858e9e"/></svg>
